<svg xmlns="http://www.w3.org/2000/svg" data-name="Layer 1" viewBox="0 0 50.55 20">
  <defs>
    <clipPath id="0KHovDF52a" transform="translate(-934.91 -530.32)">
      <path d="M970 550.32h-3.84l-1.26-1.5-1.25-1.32-2.17-2.33-2.49-2.6 2.68-1.21c2.76 2.92 8.33 8.96 8.33 8.96z" fill="none"/>
    </clipPath>
    <clipPath id="0KHovDF52b" transform="translate(-934.91 -530.32)">
      <path d="M967.69 542.05a3.26 3.26 0 01-.79 1.85c-.61-.66-1.22-1.3-1.94-2a3.57 3.57 0 00.39-1.73l2.33 1.93z" fill="none"/>
    </clipPath>
    <clipPath id="0KHovDF52c" transform="translate(-934.91 -530.32)">
      <path d="M959.82 537.2c1.27-.58 2.14-1.33 1.53-2.36a1.44 1.44 0 00-1-.36 1.23 1.23 0 00-.91.36l-.12.14c1.1-1.81 4-1.67 4.15.48.38 4.15-5.7 3-9.2 6.46-1.1 1.1-2.42 3.81.44 6.88-.13-.09-.24-.18-.36-.28a5.92 5.92 0 011.22-9.83c.58-.26 1.65-.54 2.72-.9a15.62 15.62 0 001.53-.59z" fill="none"/>
    </clipPath>
    <clipPath id="0KHovDF52d" transform="translate(-934.91 -530.32)">
      <path d="M961.46 545.15l2.17 2.33a4.67 4.67 0 01-4.17.5c-3.77-1.77-1.63-4.52-1.47-4.71a1.35 1.35 0 00.33 1.83 2.41 2.41 0 001.54.52 2.52 2.52 0 001.6-.47z" fill="none"/>
    </clipPath>
    <clipPath id="0KHovDF52e" transform="translate(-934.91 -530.32)">
      <path d="M960.28 530.32h.43c-5.05.84-5.08 5.09-2.46 7.39v.06c-1.07.36-2.14.64-2.72.9a5.91 5.91 0 01-1.3-3.25 4.65 4.65 0 011.65-3.7 6.52 6.52 0 014.4-1.4z" fill="none"/>
    </clipPath>
  </defs>
  <path d="M0 17.12V2.51h4.15V8h4.63V2.51h4.15v14.61H8.78v-5.44H4.15v5.47z" fill="#fff"/>
  <path d="M33.31 14.98l1.79 2v3s-5.57-6-8.35-9c.87-.4 1.66-.76 1.9-.89l1.42 1.41c.72.75 1.33 1.39 1.94 2 .38.4.76.81 1.18 1.24z"/>
  <g clip-path="url(#0KHovDF52a)">
    <path d="M24.09 11.02zm-.03-.01h.05V20h-.05z" fill="#fff"/>
    <path fill="#fefefe" d="M24.11 11.01h.05V20h-.05z"/>
    <path fill="#fdfdfd" d="M24.16 11.01h.05V20h-.05z"/>
    <path fill="#fcfcfc" d="M24.21 11.01h.05V20h-.05z"/>
    <path fill="#fbfbfb" d="M24.26 11.01h.05V20h-.05z"/>
    <path fill="#fafafa" d="M24.3 11.01h.05V20h-.05z"/>
    <path fill="#f9f9f9" d="M24.35 11.01h.05V20h-.05z"/>
    <path fill="#f8f8f8" d="M24.4 11.01h.05V20h-.05z"/>
    <path fill="#f7f7f7" d="M24.45 11.01h.05V20h-.05z"/>
    <path fill="#f6f6f6" d="M24.5 11.01h.05V20h-.05z"/>
    <path fill="#f5f5f5" d="M24.55 11.01h.05V20h-.05z"/>
    <path fill="#f4f4f4" d="M24.6 11.01h.05V20h-.05z"/>
    <path fill="#f3f3f3" d="M24.65 11.01h.05V20h-.05z"/>
    <path fill="#f2f2f2" d="M24.7 11.01h.05V20h-.05z"/>
    <path fill="#f1f1f1" d="M24.75 11.01h.05V20h-.05z"/>
    <path fill="#f0f0f0" d="M24.8 11.01h.05V20h-.05z"/>
    <path fill="#efefef" d="M24.85 11.01h.05V20h-.05z"/>
    <path fill="#eee" d="M24.9 11.01h.05V20h-.05z"/>
    <path fill="#ededed" d="M24.95 11.01H25V20h-.05z"/>
    <path fill="#ececec" d="M24.99 11.01h.05V20h-.05z"/>
    <path fill="#ebebeb" d="M25.04 11.01h.05V20h-.05z"/>
    <path fill="#eaeaea" d="M25.09 11.01h.05V20h-.05z"/>
    <path fill="#e9e9e9" d="M25.14 11.01h.05V20h-.05z"/>
    <path fill="#e8e8e8" d="M25.19 11.01h.05V20h-.05z"/>
    <path fill="#e7e7e7" d="M25.24 11.01h.05V20h-.05z"/>
    <path fill="#e6e6e6" d="M25.29 11.01h.05V20h-.05z"/>
    <path fill="#e5e5e5" d="M25.34 11.01h.05V20h-.05z"/>
    <path fill="#e4e4e4" d="M25.39 11.01h.05V20h-.05z"/>
    <path fill="#e3e3e3" d="M25.44 11.01h.05V20h-.05z"/>
    <path fill="#e2e2e2" d="M25.49 11.01h.05V20h-.05z"/>
    <path fill="#e1e1e1" d="M25.54 11.01h.05V20h-.05z"/>
    <path fill="#e0e0e0" d="M25.59 11.01h.05V20h-.05z"/>
    <path fill="#dfdfdf" d="M25.63 11.01h.05V20h-.05z"/>
    <path fill="#dedede" d="M25.68 11.01h.05V20h-.05z"/>
    <path fill="#ddd" d="M25.73 11.01h.05V20h-.05z"/>
    <path fill="#dcdcdc" d="M25.78 11.01h.05V20h-.05z"/>
    <path fill="#dbdbdb" d="M25.83 11.01h.05V20h-.05z"/>
    <path fill="#dadada" d="M25.88 11.01h.05V20h-.05z"/>
    <path fill="#dad9d9" d="M25.93 11.01h.05V20h-.05z"/>
    <path fill="#d9d8d8" d="M25.98 11.01h.05V20h-.05z"/>
    <path fill="#d8d7d7" d="M26.03 11.01h.05V20h-.05z"/>
    <path fill="#d7d6d6" d="M26.08 11.01h.05V20h-.05z"/>
    <path fill="#d6d5d5" d="M26.13 11.01h.05V20h-.05z"/>
    <path fill="#d5d4d4" d="M26.18 11.01h.05V20h-.05z"/>
    <path fill="#d4d3d3" d="M26.23 11.01h.05V20h-.05z"/>
    <path fill="#d3d2d2" d="M26.27 11.01h.05V20h-.05z"/>
    <path fill="#d2d1d1" d="M26.32 11.01h.05V20h-.05z"/>
    <path fill="#d1d0d0" d="M26.37 11.01h.05V20h-.05z"/>
    <path fill="#d0cfcf" d="M26.42 11.01h.05V20h-.05z"/>
    <path fill="#cfcece" d="M26.47 11.01h.05V20h-.05z"/>
    <path fill="#cecdcd" d="M26.52 11.01h.05V20h-.05z"/>
    <path fill="#cdcccc" d="M26.57 11.01h.05V20h-.05z"/>
    <path fill="#cccbcb" d="M26.62 11.01h.05V20h-.05z"/>
    <path fill="#cbcaca" d="M26.67 11.01h.05V20h-.05z"/>
    <path fill="#cac9c9" d="M26.72 11.01h.05V20h-.05z"/>
    <path fill="#c9c8c8" d="M26.77 11.01h.05V20h-.05z"/>
    <path fill="#c8c7c7" d="M26.82 11.01h.05V20h-.05z"/>
    <path fill="#c7c6c6" d="M26.87 11.01h.05V20h-.05z"/>
    <path fill="#c6c5c5" d="M26.91 11.01h.05V20h-.05z"/>
    <path fill="#c5c4c4" d="M26.96 11.01h.05V20h-.05z"/>
    <path fill="#c4c3c3" d="M27.01 11.01h.05V20h-.05z"/>
    <path fill="#c3c2c2" d="M27.06 11.01h.05V20h-.05z"/>
    <path fill="#c2c1c1" d="M27.11 11.01h.05V20h-.05z"/>
    <path fill="#c1c0c0" d="M27.16 11.01h.05V20h-.05z"/>
    <path fill="#c0bfbf" d="M27.21 11.01h.05V20h-.05z"/>
    <path fill="#bfbebe" d="M27.26 11.01h.05V20h-.05z"/>
    <path fill="#bebdbd" d="M27.31 11.01h.05V20h-.05z"/>
    <path fill="#bdbcbc" d="M27.36 11.01h.05V20h-.05z"/>
    <path fill="#bcbbbb" d="M27.41 11.01h.05V20h-.05z"/>
    <path fill="#bbbaba" d="M27.46 11.01h.05V20h-.05z"/>
    <path fill="#bab9b9" d="M27.51 11.01h.05V20h-.05z"/>
    <path fill="#b9b8b8" d="M27.55 11.01h.05V20h-.05z"/>
    <path fill="#b8b7b7" d="M27.6 11.01h.05V20h-.05z"/>
    <path fill="#b7b6b6" d="M27.65 11.01h.05V20h-.05z"/>
    <path fill="#b6b5b5" d="M27.7 11.01h.05V20h-.05z"/>
    <path fill="#b5b4b4" d="M27.75 11.01h.05V20h-.05z"/>
    <path fill="#b4b3b3" d="M27.8 11.01h.05V20h-.05z"/>
    <path fill="#b3b2b2" d="M27.85 11.01h.05V20h-.05z"/>
    <path fill="#b2b1b1" d="M27.9 11.01h.05V20h-.05z"/>
    <path fill="#b1b0b0" d="M27.95 11.01H28V20h-.05z"/>
    <path fill="#b0afaf" d="M28 11.01h.05V20H28z"/>
    <path fill="#afaeae" d="M28.05 11.01h.05V20h-.05z"/>
    <path fill="#aeadad" d="M28.1 11.01h.05V20h-.05z"/>
    <path fill="#adacac" d="M28.15 11.01h.05V20h-.05z"/>
    <path fill="#acabab" d="M28.19 11.01h.05V20h-.05z"/>
    <path fill="#abaaaa" d="M28.24 11.01h.05V20h-.05z"/>
    <path fill="#aaa9a9" d="M28.29 11.01h.05V20h-.05z"/>
    <path fill="#a9a8a8" d="M28.34 11.01h.05V20h-.05z"/>
    <path fill="#a8a7a7" d="M28.39 11.01h.05V20h-.05z"/>
    <path fill="#a7a6a6" d="M28.44 11.01h.05V20h-.05z"/>
    <path fill="#a6a5a5" d="M28.49 11.01h.05V20h-.05z"/>
    <path fill="#a5a4a4" d="M28.54 11.01h.05V20h-.05z"/>
    <path fill="#a4a3a3" d="M28.59 11.01h.05V20h-.05z"/>
    <path fill="#a3a2a2" d="M28.64 11.01h.05V20h-.05z"/>
    <path fill="#a2a1a1" d="M28.69 11.01h.05V20h-.05z"/>
    <path fill="#a1a0a0" d="M28.74 11.01h.05V20h-.05z"/>
    <path fill="#a09f9f" d="M28.79 11.01h.05V20h-.05z"/>
    <path fill="#9f9e9e" d="M28.83 11.01h.05V20h-.05z"/>
    <path fill="#9e9d9d" d="M28.88 11.01h.05V20h-.05z"/>
    <path fill="#9d9c9c" d="M28.93 11.01h.05V20h-.05z"/>
    <path fill="#9c9b9b" d="M28.98 11.01h.05V20h-.05z"/>
    <path fill="#9b9a9a" d="M29.03 11.01h.05V20h-.05z"/>
    <path fill="#9a9999" d="M29.08 11.01h.05V20h-.05z"/>
    <path fill="#999898" d="M29.13 11.01h.05V20h-.05z"/>
    <path fill="#989797" d="M29.18 11.01h.05V20h-.05z"/>
    <path fill="#979696" d="M29.23 11.01h.05V20h-.05z"/>
    <path fill="#969595" d="M29.28 11.01h.05V20h-.05z"/>
    <path fill="#959494" d="M29.33 11.01h.05V20h-.05z"/>
    <path fill="#949393" d="M29.38 11.01h.05V20h-.05z"/>
    <path fill="#939292" d="M29.43 11.01h.05V20h-.05z"/>
    <path fill="#929191" d="M29.47 11.01h.05V20h-.05z"/>
    <path fill="#919090" d="M29.52 11.01h.05V20h-.05z"/>
    <path fill="#918e8f" d="M29.57 11.01h.05V20h-.05z"/>
    <path fill="#908d8e" d="M29.62 11.01h.05V20h-.05z"/>
    <path fill="#8f8c8d" d="M29.67 11.01h.05V20h-.05z"/>
    <path fill="#8e8b8c" d="M29.72 11.01h.05V20h-.05z"/>
    <path fill="#8d8a8b" d="M29.77 11.01h.05V20h-.05z"/>
    <path fill="#8c898a" d="M29.82 11.01h.05V20h-.05z"/>
    <path fill="#8b8889" d="M29.87 11.01h.05V20h-.05z"/>
    <path fill="#8a8788" d="M29.92 11.01h.05V20h-.05z"/>
    <path fill="#898687" d="M29.97 11.01h.05V20h-.05z"/>
    <path fill="#888586" d="M30.02 11.01h.05V20h-.05z"/>
    <path fill="#878485" d="M30.07 11.01h.05V20h-.05z"/>
    <path fill="#868384" d="M30.12 11.01h.05V20h-.05z"/>
    <path fill="#858283" d="M30.16 11.01h.05V20h-.05z"/>
    <path fill="#848182" d="M30.21 11.01h.05V20h-.05z"/>
    <path fill="#838081" d="M30.26 11.01h.05V20h-.05z"/>
    <path fill="#827f80" d="M30.31 11.01h.05V20h-.05z"/>
    <path fill="#817e7f" d="M30.36 11.01h.05V20h-.05z"/>
    <path fill="#807d7e" d="M30.41 11.01h.05V20h-.05z"/>
    <path fill="#7f7c7d" d="M30.46 11.01h.05V20h-.05z"/>
    <path fill="#7e7b7c" d="M30.51 11.01h.05V20h-.05z"/>
    <path fill="#7d7a7b" d="M30.56 11.01h.05V20h-.05z"/>
    <path fill="#7c797a" d="M30.61 11.01h.05V20h-.05z"/>
    <path fill="#7b7879" d="M30.66 11.01h.05V20h-.05z"/>
    <path fill="#7a7778" d="M30.71 11.01h.05V20h-.05z"/>
    <path fill="#797677" d="M30.76 11.01h.05V20h-.05z"/>
    <path fill="#787576" d="M30.8 11.01h.05V20h-.05z"/>
    <path fill="#777475" d="M30.85 11.01h.05V20h-.05z"/>
    <path fill="#767374" d="M30.9 11.01h.05V20h-.05z"/>
    <path fill="#757273" d="M30.95 11.01H31V20h-.05z"/>
    <path fill="#747172" d="M31 11.01h.05V20H31z"/>
    <path fill="#737071" d="M31.05 11.01h.05V20h-.05z"/>
    <path fill="#726f70" d="M31.1 11.01h.05V20h-.05z"/>
    <path fill="#716e6f" d="M31.15 11.01h.05V20h-.05z"/>
    <path fill="#706d6e" d="M31.2 11.01h.05V20h-.05z"/>
    <path fill="#6f6c6d" d="M31.25 11.01h.05V20h-.05z"/>
    <path fill="#6e6b6c" d="M31.3 11.01h.05V20h-.05z"/>
    <path fill="#6d6a6b" d="M31.35 11.01h.05V20h-.05z"/>
    <path fill="#6c696a" d="M31.4 11.01h.05V20h-.05z"/>
    <path fill="#6b6869" d="M31.44 11.01h.05V20h-.05z"/>
    <path fill="#6a6768" d="M31.49 11.01h.05V20h-.05z"/>
    <path fill="#696667" d="M31.54 11.01h.05V20h-.05z"/>
    <path fill="#686566" d="M31.59 11.01h.05V20h-.05z"/>
    <path fill="#676465" d="M31.64 11.01h.05V20h-.05z"/>
    <path fill="#666364" d="M31.69 11.01h.05V20h-.05z"/>
    <path fill="#656263" d="M31.74 11.01h.05V20h-.05z"/>
    <path fill="#646162" d="M31.79 11.01h.05V20h-.05z"/>
    <path fill="#636061" d="M31.84 11.01h.05V20h-.05z"/>
    <path fill="#625f60" d="M31.89 11.01h.05V20h-.05z"/>
    <path fill="#615e5f" d="M31.94 11.01h.05V20h-.05z"/>
    <path fill="#605d5e" d="M31.99 11.01h.05V20h-.05z"/>
    <path fill="#5f5c5d" d="M32.04 11.01h.05V20h-.05z"/>
    <path fill="#5e5b5c" d="M32.08 11.01h.05V20h-.05z"/>
    <path fill="#5d5a5b" d="M32.13 11.01h.05V20h-.05z"/>
    <path fill="#5c595a" d="M32.18 11.01h.05V20h-.05z"/>
    <path fill="#5b5859" d="M32.23 11.01h.05V20h-.05z"/>
    <path fill="#5a5758" d="M32.28 11.01h.05V20h-.05z"/>
    <path fill="#595657" d="M32.33 11.01h.05V20h-.05z"/>
    <path fill="#585556" d="M32.38 11.01h.05V20h-.05z"/>
    <path fill="#575455" d="M32.43 11.01h.05V20h-.05z"/>
    <path fill="#565354" d="M32.48 11.01h.05V20h-.05z"/>
    <path fill="#555253" d="M32.53 11.01h.05V20h-.05z"/>
    <path fill="#545152" d="M32.58 11.01h.05V20h-.05z"/>
    <path fill="#535051" d="M32.63 11.01h.05V20h-.05z"/>
    <path fill="#524f50" d="M32.68 11.01h.05V20h-.05z"/>
    <path fill="#514e4f" d="M32.72 11.01h.05V20h-.05z"/>
    <path fill="#504d4e" d="M32.77 11.01h.05V20h-.05z"/>
    <path fill="#4f4c4d" d="M32.82 11.01h.05V20h-.05z"/>
    <path fill="#4e4b4c" d="M32.87 11.01h.05V20h-.05z"/>
    <path fill="#4d4a4b" d="M32.92 11.01h.05V20h-.05z"/>
    <path fill="#4c494a" d="M32.97 11.01h.05V20h-.05z"/>
    <path fill="#4b4849" d="M33.02 11.01h.05V20h-.05z"/>
    <path fill="#4a4748" d="M33.07 11.01h.05V20h-.05z"/>
    <path fill="#494647" d="M33.12 11.01h.05V20h-.05z"/>
    <path fill="#484546" d="M33.17 11.01h.05V20h-.05z"/>
    <path fill="#484445" d="M33.22 11.01h.05V20h-.05z"/>
    <path fill="#474344" d="M33.27 11.01h.05V20h-.05z"/>
    <path fill="#464243" d="M33.32 11.01h.05V20h-.05z"/>
    <path fill="#454142" d="M33.36 11.01h.05V20h-.05z"/>
    <path fill="#444041" d="M33.41 11.01h.05V20h-.05z"/>
    <path fill="#433f40" d="M33.46 11.01h.05V20h-.05z"/>
    <path fill="#423e3f" d="M33.51 11.01h.05V20h-.05z"/>
    <path fill="#413d3e" d="M33.56 11.01h.05V20h-.05z"/>
    <path fill="#403c3d" d="M33.61 11.01h.05V20h-.05z"/>
    <path fill="#3f3b3c" d="M33.66 11.01h.05V20h-.05z"/>
    <path fill="#3e3a3b" d="M33.71 11.01h.05V20h-.05z"/>
    <path fill="#3d393a" d="M33.76 11.01h.05V20h-.05z"/>
    <path fill="#3c3839" d="M33.81 11.01h.05V20h-.05z"/>
    <path fill="#3b3738" d="M33.86 11.01h.05V20h-.05z"/>
    <path fill="#3a3637" d="M33.91 11.01h.05V20h-.05z"/>
    <path fill="#393536" d="M33.96 11.01h.05V20h-.05z"/>
    <path fill="#383435" d="M34 11.01h.05V20H34z"/>
    <path fill="#373334" d="M34.05 11.01h.05V20h-.05z"/>
    <path fill="#363233" d="M34.1 11.01h.05V20h-.05z"/>
    <path fill="#353132" d="M34.15 11.01h.05V20h-.05z"/>
    <path fill="#343031" d="M34.2 11.01h.05V20h-.05z"/>
    <path fill="#332f30" d="M34.25 11.01h.05V20h-.05z"/>
    <path fill="#322e2f" d="M34.3 11.01h.05V20h-.05z"/>
    <path fill="#312d2e" d="M34.35 11.01h.05V20h-.05z"/>
    <path fill="#302c2d" d="M34.4 11.01h.05V20h-.05z"/>
    <path fill="#2f2b2c" d="M34.45 11.01h.05V20h-.05z"/>
    <path fill="#2e2a2b" d="M34.5 11.01h.05V20h-.05z"/>
    <path fill="#2d292a" d="M34.55 11.01h.05V20h-.05z"/>
    <path fill="#2c2829" d="M34.6 11.01h.05V20h-.05z"/>
    <path fill="#2b2728" d="M34.64 11.01h.05V20h-.05z"/>
    <path fill="#2a2627" d="M34.69 11.01h.05V20h-.05z"/>
    <path fill="#292526" d="M34.74 11.01h.05V20h-.05z"/>
    <path fill="#282425" d="M34.79 11.01h.05V20h-.05z"/>
    <path fill="#272324" d="M34.84 11.01h.05V20h-.05z"/>
    <path fill="#262223" d="M34.89 11.01h.05V20h-.05z"/>
    <path fill="#252122" d="M34.94 11.01h.05V20h-.05z"/>
    <path fill="#242021" d="M34.99 11.01h.05V20h-.05z"/>
    <path fill="#231f20" d="M35.04 11.01h.05V20h-.05zm.05 8.99z"/>
  </g>
  <path d="M32.78 11.73l1.84-1.12a6.75 6.75 0 01-1.44 4.22c-.42-.43-.8-.84-1.18-1.24a3.26 3.26 0 00.79-1.85z"/>
  <path d="M34.63 10.6l-1.84 1.13h-.01l-2.33-1.92 1.95-.8 2.23 1.59z"/>
  <g clip-path="url(#0KHovDF52b)">
    <path fill="#fff" d="M30.07 13.19l.62.4h-.62v-.4z"/>
    <path fill="#fff" d="M30.07 13.17l.64.42h-.02l-.62-.4v-.02z"/>
    <path fill="#fefefe" d="M30.07 13.16l.67.43h-.03l-.64-.42v-.01z"/>
    <path fill="#fdfdfd" d="M30.07 13.14l.69.45h-.02l-.67-.43v-.02z"/>
    <path fill="#fcfcfc" d="M30.07 13.13l.72.46h-.03l-.69-.45v-.01z"/>
    <path fill="#fbfbfb" d="M30.07 13.11l.74.48h-.02l-.72-.46v-.02z"/>
    <path fill="#fafafa" d="M30.07 13.1l.76.49h-.02l-.74-.48v-.01z"/>
    <path fill="#f9f9f9" d="M30.07 13.08l.79.51h-.03l-.76-.49v-.02z"/>
    <path fill="#f8f8f8" d="M30.07 13.07l.81.52h-.02l-.79-.51v-.01z"/>
    <path fill="#f7f7f7" d="M30.07 13.05l.83.54h-.02l-.81-.52v-.02z"/>
    <path fill="#f6f6f6" d="M30.07 13.04l.86.55h-.03l-.83-.54v-.01z"/>
    <path fill="#f5f5f5" d="M30.07 13.02l.88.57h-.02l-.86-.55v-.02z"/>
    <path fill="#f4f4f4" d="M30.07 13.01l.9.58h-.02l-.88-.57v-.01z"/>
    <path fill="#f3f3f3" d="M30.07 12.99l.93.6h-.03l-.9-.58v-.02z"/>
    <path fill="#f2f2f2" d="M30.07 12.98l.95.61H31l-.93-.6v-.01z"/>
    <path fill="#f1f1f1" d="M30.07 12.96l.98.63h-.03l-.95-.61v-.02z"/>
    <path fill="#f0f0f0" d="M30.07 12.95l1 .64h-.02l-.98-.63v-.01z"/>
    <path fill="#efefef" d="M30.07 12.93l1.02.66h-.02l-1-.64v-.02z"/>
    <path fill="#eee" d="M30.07 12.92l1.04.67h-.02l-1.02-.66v-.01z"/>
    <path fill="#ededed" d="M30.07 12.9l1.07.69h-.03l-1.04-.67v-.02z"/>
    <path fill="#ececec" d="M30.07 12.89l1.09.7h-.02l-1.07-.69v-.01z"/>
    <path fill="#ebebeb" d="M30.07 12.87l1.12.72h-.03l-1.09-.7v-.02z"/>
    <path fill="#eaeaea" d="M30.07 12.86l1.14.73h-.02l-1.12-.72v-.01z"/>
    <path fill="#e9e9e9" d="M30.07 12.84l1.16.75h-.02l-1.14-.73v-.02z"/>
    <path fill="#e8e8e8" d="M30.07 12.83l1.19.76h-.03l-1.16-.75v-.01z"/>
    <path fill="#e7e7e7" d="M30.07 12.81l1.21.78h-.02l-1.19-.76v-.02z"/>
    <path fill="#e6e6e6" d="M30.07 12.8l1.23.79h-.02l-1.21-.78v-.01z"/>
    <path fill="#e5e5e5" d="M30.07 12.78l1.26.81h-.03l-1.23-.79v-.02z"/>
    <path fill="#e4e4e4" d="M30.07 12.77l1.28.82h-.02l-1.26-.81v-.01z"/>
    <path fill="#e3e3e3" d="M30.07 12.75l1.31.84h-.03l-1.28-.82v-.02z"/>
    <path fill="#e2e2e2" d="M30.07 12.74l1.33.85h-.02l-1.31-.84v-.01z"/>
    <path fill="#e1e1e1" d="M30.07 12.72l1.35.87h-.02l-1.33-.85v-.02z"/>
    <path fill="#e0e0e0" d="M30.07 12.71l1.38.88h-.03l-1.35-.87v-.01z"/>
    <path fill="#dfdfdf" d="M30.07 12.69l1.4.9h-.02l-1.38-.88v-.02z"/>
    <path fill="#dedede" d="M30.07 12.68l1.42.91h-.02l-1.4-.9v-.01z"/>
    <path fill="#ddd" d="M30.07 12.66l1.45.93h-.03l-1.42-.91v-.02z"/>
    <path fill="#dcdcdc" d="M30.07 12.65l1.47.94h-.02l-1.45-.93v-.01z"/>
    <path fill="#dbdbdb" d="M30.07 12.63l1.49.96h-.02l-1.47-.94v-.02z"/>
    <path fill="#dadada" d="M30.07 12.62l1.52.97h-.03l-1.49-.96v-.01z"/>
    <path fill="#dad9d9" d="M30.07 12.6l1.54.99h-.02l-1.52-.97v-.02z"/>
    <path fill="#d9d8d8" d="M30.07 12.59l1.57 1h-.03l-1.54-.99v-.01z"/>
    <path fill="#d8d7d7" d="M30.07 12.57l1.59 1.02h-.02l-1.57-1v-.02z"/>
    <path fill="#d7d6d6" d="M30.07 12.56l1.61 1.03h-.02l-1.59-1.02v-.01z"/>
    <path fill="#d6d5d5" d="M30.07 12.54l1.64 1.05h-.03l-1.61-1.03v-.02z"/>
    <path fill="#d5d4d4" d="M30.07 12.53l1.66 1.06h-.02l-1.64-1.05v-.01z"/>
    <path fill="#d4d3d3" d="M30.07 12.51l1.68 1.08h-.02l-1.66-1.06v-.02z"/>
    <path fill="#d3d2d2" d="M30.07 12.5l1.71 1.09h-.03l-1.68-1.08v-.01z"/>
    <path fill="#d2d1d1" d="M30.07 12.48l1.73 1.11h-.02l-1.71-1.09v-.02z"/>
    <path fill="#d1d0d0" d="M30.07 12.47l1.75 1.12h-.02l-1.73-1.11v-.01z"/>
    <path fill="#d0cfcf" d="M30.07 12.45l1.78 1.14h-.03l-1.75-1.12v-.02z"/>
    <path fill="#cfcece" d="M30.07 12.44l1.8 1.15h-.02l-1.78-1.14v-.01z"/>
    <path fill="#cecdcd" d="M30.07 12.42l1.82 1.17h-.02l-1.8-1.15v-.02z"/>
    <path fill="#cdcccc" d="M30.07 12.41l1.85 1.18h-.03l-1.82-1.17v-.01z"/>
    <path fill="#cccbcb" d="M30.07 12.39l1.87 1.2h-.02l-1.85-1.18v-.02z"/>
    <path fill="#cbcaca" d="M30.07 12.38l1.9 1.21h-.03l-1.87-1.2v-.01z"/>
    <path fill="#cac9c9" d="M30.07 12.36l1.92 1.23h-.02l-1.9-1.21v-.02z"/>
    <path fill="#c9c8c8" d="M30.07 12.35l1.94 1.24h-.02l-1.92-1.23v-.01z"/>
    <path fill="#c8c7c7" d="M30.07 12.33l1.97 1.26h-.03l-1.94-1.24v-.02z"/>
    <path fill="#c7c6c6" d="M30.07 12.32l1.99 1.27h-.02l-1.97-1.26v-.01z"/>
    <path fill="#c6c5c5" d="M30.07 12.3l2.01 1.29h-.02l-1.99-1.27v-.02z"/>
    <path fill="#c5c4c4" d="M30.07 12.29l2.04 1.3h-.03l-2.01-1.29v-.01z"/>
    <path fill="#c4c3c3" d="M30.07 12.27l2.06 1.32h-.02l-2.04-1.3v-.02z"/>
    <path fill="#c3c2c2" d="M30.07 12.26l2.09 1.33h-.03l-2.06-1.32v-.01z"/>
    <path fill="#c2c1c1" d="M30.07 12.24l2.11 1.35h-.02l-2.09-1.33v-.02z"/>
    <path fill="#c1c0c0" d="M30.07 12.23l2.13 1.36h-.02l-2.11-1.35v-.01z"/>
    <path fill="#c0bfbf" d="M30.07 12.21l2.16 1.38h-.03l-2.13-1.36v-.02z"/>
    <path fill="#bfbebe" d="M30.07 12.2l2.18 1.39h-.02l-2.16-1.38v-.01z"/>
    <path fill="#bebdbd" d="M30.07 12.18l2.2 1.41h-.02l-2.18-1.39v-.02z"/>
    <path fill="#bdbcbc" d="M30.07 12.17l2.23 1.42h-.03l-2.2-1.41v-.01z"/>
    <path fill="#bcbbbb" d="M30.07 12.15l2.25 1.44h-.02l-2.23-1.42v-.02z"/>
    <path fill="#bbbaba" d="M30.07 12.14l2.27 1.45h-.02l-2.25-1.44v-.01z"/>
    <path fill="#bab9b9" d="M30.07 12.12l2.3 1.47h-.03l-2.27-1.45v-.02z"/>
    <path fill="#b9b8b8" d="M30.07 12.11l2.32 1.48h-.02l-2.3-1.47v-.01z"/>
    <path fill="#b8b7b7" d="M30.07 12.09l2.34 1.5h-.02l-2.32-1.48v-.02z"/>
    <path fill="#b7b6b6" d="M30.07 12.08l2.37 1.51h-.03l-2.34-1.5v-.01z"/>
    <path fill="#b6b5b5" d="M30.07 12.06l2.39 1.53h-.02l-2.37-1.51v-.02z"/>
    <path fill="#b5b4b4" d="M30.07 12.05l2.42 1.54h-.03l-2.39-1.53v-.01z"/>
    <path fill="#b4b3b3" d="M30.07 12.03l2.44 1.56h-.02l-2.42-1.54v-.02z"/>
    <path fill="#b3b2b2" d="M30.07 12.02l2.46 1.57h-.02l-2.44-1.56v-.01z"/>
    <path fill="#b2b1b1" d="M30.07 12l2.49 1.59h-.03l-2.46-1.57V12z"/>
    <path fill="#b1b0b0" d="M30.07 11.99l2.51 1.6h-.02L30.07 12v-.01z"/>
    <path fill="#b0afaf" d="M30.07 11.97l2.53 1.62h-.02l-2.51-1.6v-.02z"/>
    <path fill="#afaeae" d="M30.07 11.96l2.56 1.63h-.03l-2.53-1.62v-.01z"/>
    <path fill="#aeadad" d="M30.07 11.94l2.58 1.65h-.02l-2.56-1.63v-.02z"/>
    <path fill="#adacac" d="M30.07 11.93l2.6 1.66h-.02l-2.58-1.65v-.01z"/>
    <path fill="#acabab" d="M30.07 11.91l2.63 1.68h-.03l-2.6-1.66v-.02z"/>
    <path fill="#abaaaa" d="M30.07 11.9l2.65 1.69h-.02l-2.63-1.68v-.01z"/>
    <path fill="#aaa9a9" d="M30.07 11.88l2.68 1.71h-.03l-2.65-1.69v-.02z"/>
    <path fill="#a9a8a8" d="M30.07 11.87l2.7 1.72h-.02l-2.68-1.71v-.01z"/>
    <path fill="#a8a7a7" d="M30.07 11.85l2.72 1.73v.01h-.02l-2.7-1.72v-.02z"/>
    <path fill="#a7a6a6" d="M30.07 11.84l2.72 1.73v.01l-2.72-1.73v-.01z"/>
    <path fill="#a6a5a5" d="M30.07 11.82l2.72 1.73v.02l-2.72-1.73v-.02z"/>
    <path fill="#a5a4a4" d="M30.07 11.81l2.72 1.73v.01l-2.72-1.73v-.01z"/>
    <path fill="#a4a3a3" d="M30.07 11.79l2.72 1.73v.02l-2.72-1.73v-.02z"/>
    <path fill="#a3a2a2" d="M30.07 11.78l2.72 1.73v.01l-2.72-1.73v-.01z"/>
    <path fill="#a2a1a1" d="M30.07 11.76l2.72 1.73v.02l-2.72-1.73v-.02z"/>
    <path fill="#a1a0a0" d="M30.07 11.75l2.72 1.73v.01l-2.72-1.73v-.01z"/>
    <path fill="#a09f9f" d="M30.07 11.73l2.72 1.73v.02l-2.72-1.73v-.02z"/>
    <path fill="#9f9e9e" d="M30.07 11.72l2.72 1.73v.01l-2.72-1.73v-.01z"/>
    <path fill="#9e9d9d" d="M30.07 11.7l2.72 1.73v.02l-2.72-1.73v-.02z"/>
    <path fill="#9d9c9c" d="M30.07 11.69l2.72 1.73v.01l-2.72-1.73v-.01z"/>
    <path fill="#9c9b9b" d="M30.07 11.67l2.72 1.73v.02l-2.72-1.73v-.02z"/>
    <path fill="#9b9a9a" d="M30.07 11.66l2.72 1.73v.01l-2.72-1.73v-.01z"/>
    <path fill="#9a9999" d="M30.07 11.64l2.72 1.73v.02l-2.72-1.73v-.02z"/>
    <path fill="#999898" d="M30.07 11.63l2.72 1.73v.01l-2.72-1.73v-.01z"/>
    <path fill="#989797" d="M30.07 11.61l2.72 1.73v.02l-2.72-1.73v-.02z"/>
    <path fill="#979696" d="M30.07 11.6l2.72 1.73v.01l-2.72-1.73v-.01z"/>
    <path fill="#969595" d="M30.07 11.58l2.72 1.73v.02l-2.72-1.73v-.02z"/>
    <path fill="#959494" d="M30.07 11.57l2.72 1.73v.01l-2.72-1.73v-.01z"/>
    <path fill="#949393" d="M30.07 11.55l2.72 1.73v.02l-2.72-1.73v-.02z"/>
    <path fill="#939292" d="M30.07 11.54l2.72 1.73v.01l-2.72-1.73v-.01z"/>
    <path fill="#929191" d="M30.07 11.52l2.72 1.73v.02l-2.72-1.73v-.02z"/>
    <path fill="#919090" d="M30.07 11.51l2.72 1.73v.01l-2.72-1.73v-.01z"/>
    <path fill="#918e8f" d="M30.07 11.49l2.72 1.73v.02l-2.72-1.73v-.02z"/>
    <path fill="#908d8e" d="M30.07 11.48l2.72 1.73v.01l-2.72-1.73v-.01z"/>
    <path fill="#8f8c8d" d="M30.07 11.46l2.72 1.73v.02l-2.72-1.73v-.02z"/>
    <path fill="#8e8b8c" d="M30.07 11.45l2.72 1.73v.01l-2.72-1.73v-.01z"/>
    <path fill="#8d8a8b" d="M30.07 11.43l2.72 1.73v.02l-2.72-1.73v-.02z"/>
    <path fill="#8c898a" d="M30.07 11.42l2.72 1.73v.01l-2.72-1.73v-.01z"/>
    <path fill="#8b8889" d="M30.07 11.4l2.72 1.73v.02l-2.72-1.73v-.02z"/>
    <path fill="#8a8788" d="M30.07 11.39l2.72 1.73v.01l-2.72-1.73v-.01z"/>
    <path fill="#898687" d="M30.07 11.37l2.72 1.73v.02l-2.72-1.73v-.02z"/>
    <path fill="#888586" d="M30.07 11.36l2.72 1.73v.01l-2.72-1.73v-.01z"/>
    <path fill="#878485" d="M30.07 11.34l2.72 1.73v.02l-2.72-1.73v-.02z"/>
    <path fill="#868384" d="M30.07 11.33l2.72 1.73v.01l-2.72-1.73v-.01z"/>
    <path fill="#858283" d="M30.07 11.31l2.72 1.73v.02l-2.72-1.73v-.02z"/>
    <path fill="#848182" d="M30.07 11.3l2.72 1.73v.01l-2.72-1.73v-.01z"/>
    <path fill="#838081" d="M30.07 11.28l2.72 1.73v.02l-2.72-1.73v-.02z"/>
    <path fill="#827f80" d="M30.07 11.27L32.79 13v.01l-2.72-1.73v-.01z"/>
    <path fill="#817e7f" d="M30.07 11.25l2.72 1.73V13l-2.72-1.73v-.02z"/>
    <path fill="#807d7e" d="M30.07 11.24l2.72 1.73v.01l-2.72-1.73v-.01z"/>
    <path fill="#7f7c7d" d="M30.07 11.22l2.72 1.73v.02l-2.72-1.73v-.02z"/>
    <path fill="#7e7b7c" d="M30.07 11.21l2.72 1.73v.01l-2.72-1.73v-.01z"/>
    <path fill="#7d7a7b" d="M30.07 11.19l2.72 1.73v.02l-2.72-1.73v-.02z"/>
    <path fill="#7c797a" d="M30.07 11.18l2.72 1.73v.01l-2.72-1.73v-.01z"/>
    <path fill="#7b7879" d="M30.07 11.16l2.72 1.73v.02l-2.72-1.73v-.02z"/>
    <path fill="#7a7778" d="M30.07 11.15l2.72 1.73v.01l-2.72-1.73v-.01z"/>
    <path fill="#797677" d="M30.07 11.13l2.72 1.73v.02l-2.72-1.73v-.02z"/>
    <path fill="#787576" d="M30.07 11.12l2.72 1.73v.01l-2.72-1.73v-.01z"/>
    <path fill="#777475" d="M30.07 11.1l2.72 1.73v.02l-2.72-1.73v-.02z"/>
    <path fill="#767374" d="M30.07 11.09l2.72 1.73v.01l-2.72-1.73v-.01z"/>
    <path fill="#757273" d="M30.07 11.07l2.72 1.73v.02l-2.72-1.73v-.02z"/>
    <path fill="#747172" d="M30.07 11.06l2.72 1.73v.01l-2.72-1.73v-.01z"/>
    <path fill="#737071" d="M30.07 11.04l2.72 1.73v.02l-2.72-1.73v-.02z"/>
    <path fill="#726f70" d="M30.07 11.03l2.72 1.73v.01l-2.72-1.73v-.01z"/>
    <path fill="#716e6f" d="M30.07 11.01l2.72 1.73v.02l-2.72-1.73v-.02z"/>
    <path fill="#706d6e" d="M30.07 11l2.72 1.73v.01l-2.72-1.73V11z"/>
    <path fill="#6f6c6d" d="M30.07 10.98l2.72 1.73v.02L30.07 11v-.02z"/>
    <path fill="#6e6b6c" d="M30.07 10.97l2.72 1.73v.01l-2.72-1.73v-.01z"/>
    <path fill="#6d6a6b" d="M30.07 10.95l2.72 1.73v.02l-2.72-1.73v-.02z"/>
    <path fill="#6c696a" d="M30.07 10.94l2.72 1.73v.01l-2.72-1.73v-.01z"/>
    <path fill="#6b6869" d="M30.07 10.92l2.72 1.73v.02l-2.72-1.73v-.02z"/>
    <path fill="#6a6768" d="M30.07 10.91l2.72 1.73v.01l-2.72-1.73v-.01z"/>
    <path fill="#696667" d="M30.07 10.89l2.72 1.73v.02l-2.72-1.73v-.02z"/>
    <path fill="#686566" d="M30.07 10.88l2.72 1.73v.01l-2.72-1.73v-.01z"/>
    <path fill="#676465" d="M30.07 10.86l2.72 1.73v.02l-2.72-1.73v-.02z"/>
    <path fill="#666364" d="M30.07 10.85l2.72 1.73v.01l-2.72-1.73v-.01z"/>
    <path fill="#656263" d="M30.07 10.83l2.72 1.73v.02l-2.72-1.73v-.02z"/>
    <path fill="#646162" d="M30.07 10.82l2.72 1.73v.01l-2.72-1.73v-.01z"/>
    <path fill="#636061" d="M30.07 10.8l2.72 1.73v.02l-2.72-1.73v-.02z"/>
    <path fill="#625f60" d="M30.07 10.79l2.72 1.73v.01l-2.72-1.73v-.01z"/>
    <path fill="#615e5f" d="M30.07 10.77l2.72 1.73v.02l-2.72-1.73v-.02z"/>
    <path fill="#605d5e" d="M30.07 10.76l2.72 1.73v.01l-2.72-1.73v-.01z"/>
    <path fill="#5f5c5d" d="M30.07 10.74l2.72 1.73v.02l-2.72-1.73v-.02z"/>
    <path fill="#5e5b5c" d="M30.07 10.73l2.72 1.73v.01l-2.72-1.73v-.01z"/>
    <path fill="#5d5a5b" d="M30.07 10.71l2.72 1.73v.02l-2.72-1.73v-.02z"/>
    <path fill="#5c595a" d="M30.07 10.7l2.72 1.73v.01l-2.72-1.73v-.01z"/>
    <path fill="#5b5859" d="M30.07 10.68l2.72 1.73v.02l-2.72-1.73v-.02z"/>
    <path fill="#5a5758" d="M30.07 10.67l2.72 1.73v.01l-2.72-1.73v-.01z"/>
    <path fill="#595657" d="M30.07 10.65l2.72 1.73v.02l-2.72-1.73v-.02z"/>
    <path fill="#585556" d="M30.07 10.64l2.72 1.73v.01l-2.72-1.73v-.01z"/>
    <path fill="#575455" d="M30.07 10.62l2.72 1.73v.02l-2.72-1.73v-.02z"/>
    <path fill="#565354" d="M30.07 10.61l2.72 1.73v.01l-2.72-1.73v-.01z"/>
    <path fill="#555253" d="M30.07 10.59l2.72 1.73v.02l-2.72-1.73v-.02z"/>
    <path fill="#545152" d="M30.07 10.58l2.72 1.73v.01l-2.72-1.73v-.01z"/>
    <path fill="#535051" d="M30.07 10.56l2.72 1.73v.02l-2.72-1.73v-.02z"/>
    <path fill="#524f50" d="M30.07 10.55l2.72 1.73v.01l-2.72-1.73v-.01z"/>
    <path fill="#514e4f" d="M30.07 10.53l2.72 1.73v.02l-2.72-1.73v-.02z"/>
    <path fill="#504d4e" d="M30.07 10.52l2.72 1.73v.01l-2.72-1.73v-.01z"/>
    <path fill="#4f4c4d" d="M30.07 10.5l2.72 1.73v.02l-2.72-1.73v-.02z"/>
    <path fill="#4e4b4c" d="M30.07 10.49l2.72 1.73v.01l-2.72-1.73v-.01z"/>
    <path fill="#4d4a4b" d="M30.07 10.47l2.72 1.73v.02l-2.72-1.73v-.02z"/>
    <path fill="#4c494a" d="M30.07 10.46l2.72 1.73v.01l-2.72-1.73v-.01z"/>
    <path fill="#4b4849" d="M30.07 10.44l2.72 1.73v.02l-2.72-1.73v-.02z"/>
    <path fill="#4a4748" d="M30.07 10.43l2.72 1.73v.01l-2.72-1.73v-.01z"/>
    <path fill="#494647" d="M30.07 10.41l2.72 1.73v.02l-2.72-1.73v-.02z"/>
    <path fill="#484546" d="M30.07 10.4l2.72 1.73v.01l-2.72-1.73v-.01z"/>
    <path fill="#484445" d="M30.07 10.38l2.72 1.73v.02l-2.72-1.73v-.02z"/>
    <path fill="#474344" d="M30.07 10.37l2.72 1.73v.01l-2.72-1.73v-.01z"/>
    <path fill="#464243" d="M30.07 10.35l2.72 1.73v.02l-2.72-1.73v-.02z"/>
    <path fill="#454142" d="M30.07 10.34l2.72 1.73v.01l-2.72-1.73v-.01z"/>
    <path fill="#444041" d="M30.07 10.32l2.72 1.73v.02l-2.72-1.73v-.02z"/>
    <path fill="#433f40" d="M30.07 10.31l2.72 1.73v.01l-2.72-1.73v-.01z"/>
    <path fill="#423e3f" d="M30.07 10.29l2.72 1.73v.02l-2.72-1.73v-.02z"/>
    <path fill="#413d3e" d="M30.07 10.28l2.72 1.73v.01l-2.72-1.73v-.01z"/>
    <path fill="#403c3d" d="M30.07 10.26l2.72 1.73v.02l-2.72-1.73v-.02z"/>
    <path fill="#3f3b3c" d="M30.07 10.25l2.72 1.73v.01l-2.72-1.73v-.01z"/>
    <path fill="#3e3a3b" d="M30.07 10.23l2.72 1.73v.02l-2.72-1.73v-.02z"/>
    <path fill="#3d393a" d="M30.07 10.22l2.72 1.73v.01l-2.72-1.73v-.01z"/>
    <path fill="#3c3839" d="M30.07 10.2l2.72 1.73v.02l-2.72-1.73v-.02z"/>
    <path fill="#3b3738" d="M30.07 10.19l2.72 1.73v.01l-2.72-1.73v-.01z"/>
    <path fill="#3a3637" d="M30.07 10.17l2.72 1.73v.02l-2.72-1.73v-.02z"/>
    <path fill="#393536" d="M30.07 10.16l2.72 1.73v.01l-2.72-1.73v-.01z"/>
    <path fill="#383435" d="M30.07 10.14l2.72 1.73v.02l-2.72-1.73v-.02z"/>
    <path fill="#373334" d="M30.07 10.13l2.72 1.73v.01l-2.72-1.73v-.01z"/>
    <path fill="#363233" d="M30.07 10.11l2.72 1.73v.02l-2.72-1.73v-.02z"/>
    <path fill="#353132" d="M30.07 10.1l2.72 1.73v.01l-2.72-1.73v-.01z"/>
    <path fill="#343031" d="M30.07 10.08l2.72 1.73v.02l-2.72-1.73v-.02z"/>
    <path fill="#332f30" d="M30.07 10.07l2.72 1.73v.01l-2.72-1.73v-.01z"/>
    <path fill="#322e2f" d="M30.07 10.05l2.72 1.73v.02l-2.72-1.73v-.02z"/>
    <path fill="#312d2e" d="M30.07 10.04l2.72 1.73v.01l-2.72-1.73v-.01z"/>
    <path fill="#302c2d" d="M30.07 10.02l2.72 1.73v.02l-2.72-1.73v-.02z"/>
    <path fill="#2f2b2c" d="M30.07 10.01l2.72 1.73v.01l-2.72-1.73v-.01z"/>
    <path fill="#2e2a2b" d="M30.07 9.99l2.72 1.73v.02l-2.72-1.73v-.02z"/>
    <path fill="#2d292a" d="M30.07 9.98l2.72 1.73v.01l-2.72-1.73v-.01z"/>
    <path fill="#2c2829" d="M30.07 9.96l2.72 1.73v.02l-2.72-1.73v-.02z"/>
    <path fill="#2b2728" d="M30.07 9.95l2.72 1.73v.01l-2.72-1.73v-.01z"/>
    <path fill="#2a2627" d="M30.07 9.94l2.72 1.72v.02l-2.72-1.73v-.01z"/>
    <path fill="#292526" d="M30.07 9.92l2.72 1.73v.01l-2.72-1.72v-.02z"/>
    <path fill="#282425" d="M30.07 9.9l2.72 1.73v.02l-2.72-1.73V9.9z"/>
    <path fill="#272324" d="M30.07 9.89l2.72 1.73v.01L30.07 9.9v-.01z"/>
    <path fill="#262223" d="M30.07 9.88l2.72 1.72v.02l-2.72-1.73v-.01z"/>
    <path fill="#252122" d="M30.07 9.86l2.72 1.73v.01l-2.72-1.72v-.02z"/>
    <path fill="#242021" d="M30.07 9.85l2.72 1.72v.02l-2.72-1.73v-.01z"/>
    <path fill="#231f20" d="M30.07 9.83l2.72 1.73v.01l-2.72-1.72v-.02z"/>
    <path fill="#231f20" d="M32.79 11.56l-2.72-1.73v-.02h2.72v1.75z"/>
  </g>
  <path d="M23.09 12.95c-.16.19-2.3 2.94 1.47 4.71a4.67 4.67 0 004.17-.5l1.25 1.32a8.15 8.15 0 01-5 1.48 8.53 8.53 0 01-5.23-1.5c-2.86-3.07-1.54-5.78-.44-6.88 3.5-3.49 9.58-2.31 9.2-6.46-.2-2.15-3.05-2.29-4.15-.48a1.22 1.22 0 00-.23.76c0 .62.21.89.75 1.46a15.62 15.62 0 01-1.55.59v-.06C20.71 5.09 20.74.84 25.79 0a6.17 6.17 0 014.08 1.46 4.87 4.87 0 011.62 3.78 5.25 5.25 0 01-2.86 4.87c-.24.13-1 .49-1.9.89l-2.64 1.23a2.51 2.51 0 00-1 .72z"/>
  <g clip-path="url(#0KHovDF52c)">
    <path fill="#fff" d="M16.92 18l.4.48h-.4V18z"/>
    <path fill="#fff" d="M16.92 17.89l.49.59h-.09l-.4-.48v-.11z"/>
    <path fill="#fefefe" d="M16.92 17.79l.58.69h-.09l-.49-.59v-.1z"/>
    <path fill="#fdfdfd" d="M16.92 17.68l.67.8h-.09l-.58-.69v-.11z"/>
    <path fill="#fcfcfc" d="M16.92 17.58l.76.9h-.09l-.67-.8v-.1z"/>
    <path fill="#fbfbfb" d="M16.92 17.47l.84 1.01h-.08l-.76-.9v-.11z"/>
    <path fill="#fafafa" d="M16.92 17.37l.93 1.11h-.09l-.84-1.01v-.1z"/>
    <path fill="#f9f9f9" d="M16.92 17.27l1.02 1.21h-.09l-.93-1.11v-.1z"/>
    <path fill="#f8f8f8" d="M16.92 17.16l1.11 1.32h-.09l-1.02-1.21v-.11z"/>
    <path fill="#f7f7f7" d="M16.92 17.06l1.19 1.42h-.08l-1.11-1.32v-.1z"/>
    <path fill="#f6f6f6" d="M16.92 16.95l1.28 1.53h-.09l-1.19-1.42v-.11z"/>
    <path fill="#f5f5f5" d="M16.92 16.85l1.37 1.63h-.09l-1.28-1.53v-.1z"/>
    <path fill="#f4f4f4" d="M16.92 16.74l1.46 1.74h-.09l-1.37-1.63v-.11z"/>
    <path fill="#f3f3f3" d="M16.92 16.64l1.54 1.84h-.08l-1.46-1.74v-.1z"/>
    <path fill="#f2f2f2" d="M16.92 16.53l1.63 1.95h-.09l-1.54-1.84v-.11z"/>
    <path fill="#f1f1f1" d="M16.92 16.43l1.72 2.05h-.09l-1.63-1.95v-.1z"/>
    <path fill="#f0f0f0" d="M16.92 16.32l1.81 2.16h-.09l-1.72-2.05v-.11z"/>
    <path fill="#efefef" d="M16.92 16.22l1.9 2.26h-.09l-1.81-2.16v-.1z"/>
    <path fill="#eee" d="M16.92 16.12l1.98 2.36h-.08l-1.9-2.26v-.1z"/>
    <path fill="#ededed" d="M16.92 16.01l2.07 2.47h-.09l-1.98-2.36v-.11z"/>
    <path fill="#ececec" d="M16.92 15.91l2.16 2.57h-.09l-2.07-2.47v-.1z"/>
    <path fill="#ebebeb" d="M16.92 15.8l2.24 2.68h-.08l-2.16-2.57v-.11z"/>
    <path fill="#eaeaea" d="M16.92 15.7l2.33 2.78h-.09l-2.24-2.68v-.1z"/>
    <path fill="#e9e9e9" d="M16.92 15.59l2.42 2.89h-.09l-2.33-2.78v-.11z"/>
    <path fill="#e8e8e8" d="M16.92 15.49l2.51 2.99h-.09l-2.42-2.89v-.1z"/>
    <path fill="#e7e7e7" d="M16.92 15.38l2.6 3.1h-.09l-2.51-2.99v-.11z"/>
    <path fill="#e6e6e6" d="M16.92 15.28l2.68 3.2h-.08l-2.6-3.1v-.1z"/>
    <path fill="#e5e5e5" d="M16.92 15.18l2.77 3.3h-.09l-2.68-3.2v-.1z"/>
    <path fill="#e4e4e4" d="M16.92 15.07l2.86 3.41h-.09l-2.77-3.3v-.11z"/>
    <path fill="#e3e3e3" d="M16.92 14.97l2.95 3.51h-.09l-2.86-3.41v-.1z"/>
    <path fill="#e2e2e2" d="M16.92 14.86l3.03 3.62h-.08l-2.95-3.51v-.11z"/>
    <path fill="#e1e1e1" d="M16.92 14.76l3.12 3.72h-.09l-3.03-3.62v-.1z"/>
    <path fill="#e0e0e0" d="M16.92 14.65l3.21 3.83h-.09l-3.12-3.72v-.11z"/>
    <path fill="#dfdfdf" d="M16.92 14.55l3.3 3.93h-.09l-3.21-3.83v-.1z"/>
    <path fill="#dedede" d="M16.92 14.45l3.38 4.03h-.08l-3.3-3.93v-.1z"/>
    <path fill="#ddd" d="M16.92 14.34l3.47 4.14h-.09l-3.38-4.03v-.11z"/>
    <path fill="#dcdcdc" d="M16.92 14.24l3.56 4.24h-.09l-3.47-4.14v-.1z"/>
    <path fill="#dbdbdb" d="M16.92 14.13l3.65 4.35h-.09l-3.56-4.24v-.11z"/>
    <path fill="#dadada" d="M16.92 14.03l3.74 4.45h-.09l-3.65-4.35v-.1z"/>
    <path fill="#dad9d9" d="M16.92 13.92l3.82 4.56h-.08l-3.74-4.45v-.11z"/>
    <path fill="#d9d8d8" d="M16.92 13.82l3.9 4.64-.02.02h-.06l-3.82-4.56v-.1z"/>
    <path fill="#d8d7d7" d="M16.92 13.71l3.95 4.71-.05.04-3.9-4.64v-.11z"/>
    <path fill="#d7d6d6" d="M16.92 13.61l4 4.77-.05.04-3.95-4.71v-.1z"/>
    <path fill="#d6d5d5" d="M16.92 13.51l4.05 4.83-.05.04-4-4.77v-.1z"/>
    <path fill="#d5d4d4" d="M16.92 13.4l4.1 4.89-.05.05-4.05-4.83v-.11z"/>
    <path fill="#d4d3d3" d="M16.92 13.3l4.16 4.95-.06.04-4.1-4.89v-.1z"/>
    <path fill="#d3d2d2" d="M16.92 13.19l4.21 5.02-.05.04-4.16-4.95v-.11z"/>
    <path fill="#d2d1d1" d="M16.92 13.09l4.26 5.07-.05.05-4.21-5.02v-.1z"/>
    <path fill="#d1d0d0" d="M16.92 12.98l4.31 5.14-.05.04-4.26-5.07v-.11z"/>
    <path fill="#d0cfcf" d="M16.92 12.88l4.36 5.2-.05.04-4.31-5.14v-.1z"/>
    <path fill="#cfcece" d="M16.92 12.77l4.41 5.26-.05.05-4.36-5.2v-.11z"/>
    <path fill="#cecdcd" d="M16.92 12.67l4.47 5.32-.06.04-4.41-5.26v-.1z"/>
    <path fill="#cdcccc" d="M16.92 12.57l4.52 5.38-.05.04-4.47-5.32v-.1z"/>
    <path fill="#cccbcb" d="M16.92 12.46l4.57 5.44-.05.05-4.52-5.38v-.11z"/>
    <path fill="#cbcaca" d="M16.92 12.36l4.62 5.5-.05.04-4.57-5.44v-.1z"/>
    <path fill="#cac9c9" d="M16.92 12.25l4.67 5.57-.05.04-4.62-5.5v-.11z"/>
    <path fill="#c9c8c8" d="M16.92 12.15l4.72 5.62-.05.05-4.67-5.57v-.1z"/>
    <path fill="#c8c7c7" d="M16.92 12.04l4.77 5.69-.05.04-4.72-5.62v-.11z"/>
    <path fill="#c7c6c6" d="M16.92 11.94l4.83 5.75-.06.04-4.77-5.69v-.1z"/>
    <path fill="#c6c5c5" d="M16.92 11.83l4.88 5.81-.05.05-4.83-5.75v-.11z"/>
    <path fill="#c5c4c4" d="M16.92 11.73l4.93 5.87-.05.04-4.88-5.81v-.1z"/>
    <path fill="#c4c3c3" d="M16.92 11.63l4.98 5.93-.05.04-4.93-5.87v-.1z"/>
    <path fill="#c3c2c2" d="M16.92 11.52l5.03 6-.05.04-4.98-5.93v-.11z"/>
    <path fill="#c2c1c1" d="M16.92 11.42L22 17.47l-.05.05-5.03-6v-.1z"/>
    <path fill="#c1c0c0" d="M16.92 11.31l5.13 6.12-.05.04-5.08-6.05v-.11z"/>
    <path fill="#c0bfbf" d="M16.92 11.21l5.19 6.18-.06.04-5.13-6.12v-.1z"/>
    <path fill="#bfbebe" d="M16.92 11.1l5.24 6.24-.05.05-5.19-6.18v-.11z"/>
    <path fill="#bebdbd" d="M16.92 11l5.29 6.3-.05.04-5.24-6.24V11z"/>
    <path fill="#bdbcbc" d="M16.92 10.89l5.34 6.37-.05.04-5.29-6.3v-.11z"/>
    <path fill="#bcbbbb" d="M16.92 10.79l5.39 6.42-.05.05-5.34-6.37v-.1z"/>
    <path fill="#bbbaba" d="M16.92 10.69l5.44 6.48-.05.04-5.39-6.42v-.1z"/>
    <path fill="#bab9b9" d="M16.92 10.58l5.49 6.55-.05.04-5.44-6.48v-.11z"/>
    <path fill="#b9b8b8" d="M16.92 10.48l5.54 6.6-.05.05-5.49-6.55v-.1z"/>
    <path fill="#b8b7b7" d="M16.92 10.37l5.6 6.67-.06.04-5.54-6.6v-.11z"/>
    <path fill="#b7b6b6" d="M16.92 10.27L22.57 17l-.05.04-5.6-6.67v-.1z"/>
    <path fill="#b6b5b5" d="M16.92 10.16l5.7 6.79-.05.05-5.65-6.73v-.11z"/>
    <path fill="#b5b4b4" d="M16.92 10.06l5.75 6.85-.05.04-5.7-6.79v-.1z"/>
    <path fill="#b4b3b3" d="M16.92 9.96l5.8 6.91-.05.04-5.75-6.85v-.1z"/>
    <path fill="#b3b2b2" d="M16.92 9.85l5.85 6.97-.05.05-5.8-6.91v-.11z"/>
    <path fill="#b2b1b1" d="M16.92 9.75l5.9 7.03-.05.04-5.85-6.97v-.1z"/>
    <path fill="#b1b0b0" d="M16.92 9.64l5.96 7.1-.06.04-5.9-7.03v-.11z"/>
    <path fill="#b0afaf" d="M16.92 9.54l6.01 7.16-.05.04-5.96-7.1v-.1z"/>
    <path fill="#afaeae" d="M16.92 9.43l6.06 7.22-.05.05-6.01-7.16v-.11z"/>
    <path fill="#aeadad" d="M16.92 9.33l6.11 7.28-.05.04-6.06-7.22v-.1z"/>
    <path fill="#adacac" d="M16.92 9.22l6.16 7.35-.05.04-6.11-7.28v-.11z"/>
    <path fill="#acabab" d="M16.92 9.18l.03-.02 6.18 7.36-.05.05-6.16-7.35v-.04z"/>
    <path fill="#abaaaa" d="M16.948 9.151l.054-.045 6.184 7.37-.054.044z"/>
    <path fill="#aaa9a9" d="M17 9.118l.055-.045 6.183 7.37-.053.045z"/>
    <path fill="#a9a8a8" d="M17.061 9.07l.054-.046 6.183 7.37-.053.044z"/>
    <path fill="#a8a7a7" d="M17.107 9.019l.054-.045 6.184 7.369-.054.045z"/>
    <path fill="#a7a6a6" d="M17.16 8.986l.054-.045 6.183 7.37-.053.044z"/>
    <path fill="#a6a5a5" d="M17.213 8.943l.053-.045 6.184 7.37-.054.044z"/>
    <path fill="#a5a4a4" d="M17.259 8.893l.053-.045 6.184 7.369-.054.045z"/>
    <path fill="#a4a3a3" d="M17.311 8.86l.054-.045 6.184 7.37-.054.044z"/>
    <path fill="#a3a2a2" d="M17.364 8.817l.053-.045 6.184 7.37-.054.044z"/>
    <path fill="#a2a1a1" d="M17.424 8.768l.054-.045 6.183 7.37-.053.044z"/>
    <path fill="#a1a0a0" d="M17.47 8.717l.054-.045 6.184 7.37-.054.045z"/>
    <path fill="#a09f9f" d="M17.523 8.685l.053-.045 6.184 7.369-.054.045z"/>
    <path fill="#9f9e9e" d="M17.575 8.642l.054-.045 6.184 7.37-.054.044z"/>
    <path fill="#9e9d9d" d="M17.622 8.591l.053-.045 6.184 7.37-.054.045z"/>
    <path fill="#9d9c9c" d="M17.674 8.559l.054-.045 6.183 7.369-.053.045z"/>
    <path fill="#9c9b9b" d="M17.727 8.516l.053-.045 6.184 7.37-.054.044z"/>
    <path fill="#9b9a9a" d="M17.78 8.459l.054-.045 6.184 7.37-.054.044z"/>
    <path fill="#9a9999" d="M17.833 8.416l.054-.045 6.183 7.37-.053.045z"/>
    <path fill="#999898" d="M17.876 8.383l.053-.045 6.184 7.37-.054.045z"/>
    <path fill="#989797" d="M17.922 8.333l.054-.045 6.183 7.37-.053.044z"/>
    <path fill="#979696" d="M17.975 8.29l.053-.045 6.184 7.37-.054.045z"/>
    <path fill="#969595" d="M18.027 8.247l.054-.045 6.183 7.37-.053.045z"/>
    <path fill="#959494" d="M18.073 8.207l.054-.045 6.184 7.37-.054.044z"/>
    <path fill="#949393" d="M18.134 8.158l.053-.045 6.184 7.37-.054.044z"/>
    <path fill="#939292" d="M18.186 8.115l.054-.045 6.183 7.37-.053.044z"/>
    <path fill="#929191" d="M18.232 8.075l.054-.045 6.184 7.369-.054.045z"/>
    <path fill="#919090" d="M18.285 8.032l.054-.045 6.183 7.37-.053.044z"/>
    <path fill="#918e8f" d="M18.338 7.989l.053-.045 6.184 7.37-.054.044z"/>
    <path fill="#908d8e" d="M18.39 7.956l.054-.045 6.183 7.37-.053.045z"/>
    <path fill="#8f8c8d" d="M18.436 7.906l.054-.045 6.183 7.37-.053.044z"/>
    <path fill="#8e8b8c" d="M18.497 7.857l.053-.045 6.184 7.369-.054.045z"/>
    <path fill="#8d8a8b" d="M18.55 7.814l.053-.045 6.183 7.37-.053.044z"/>
    <path fill="#8c898a" d="M18.595 7.773l.054-.045 6.184 7.37-.054.045z"/>
    <path fill="#8b8889" d="M18.648 7.73l.053-.044 6.184 7.369-.054.045z"/>
    <path fill="#8a8788" d="M18.7 7.688l.054-.045 6.184 7.37-.054.044z"/>
    <path fill="#898687" d="M18.747 7.647l.053-.045 6.184 7.37-.054.045z"/>
    <path fill="#888586" d="M18.8 7.605l.053-.045 6.183 7.369-.053.045z"/>
    <path fill="#878485" d="M18.86 7.555l.053-.045 6.184 7.37-.054.045z"/>
    <path fill="#868384" d="M18.906 7.515l.053-.045 6.184 7.37-.054.044z"/>
    <path fill="#858283" d="M18.958 7.472l.054-.045 6.183 7.37-.053.044z"/>
    <path fill="#848182" d="M19.01 7.43l.054-.046 6.184 7.37-.054.045z"/>
    <path fill="#838081" d="M19.057 7.379l.054-.045 6.183 7.37-.053.044z"/>
    <path fill="#827f80" d="M19.11 7.346l.053-.045 6.184 7.37-.054.044z"/>
    <path fill="#817e7f" d="M19.162 7.303l.054-.045 6.183 7.37-.053.045z"/>
    <path fill="#807d7e" d="M19.222 7.254l.054-.045 6.184 7.37-.054.045z"/>
    <path fill="#7f7c7d" d="M19.269 7.214l.053-.045 6.184 7.37-.054.044z"/>
    <path fill="#7e7b7c" d="M19.321 7.17l.054-.044 6.183 7.37-.053.044z"/>
    <path fill="#7d7a7b" d="M19.374 7.128l.053-.045 6.184 7.37-.054.044z"/>
    <path fill="#7c797a" d="M19.42 7.088l.054-.045 6.183 7.37-.053.044z"/>
    <path fill="#7b7879" d="M19.472 7.045L19.526 7l6.184 7.37-.054.044z"/>
    <path fill="#7a7778" d="M19.525 7.002l.054-.045 6.183 7.37-.053.044z"/>
    <path fill="#797677" d="M19.571 6.952l.054-.045 6.183 7.37-.053.044z"/>
    <path fill="#787576" d="M19.631 6.912l.054-.045 6.184 7.37-.054.045z"/>
    <path fill="#777475" d="M19.684 6.87l.054-.045 6.183 7.37-.053.044z"/>
    <path fill="#767374" d="M19.73 6.82l.054-.046 6.183 7.37-.053.045z"/>
    <path fill="#757273" d="M19.783 6.786l.053-.045 6.184 7.37-.054.045z"/>
    <path fill="#747172" d="M19.835 6.744l.054-.045 6.184 7.37-.054.044z"/>
    <path fill="#737071" d="M19.882 6.693l.053-.045 6.184 7.37-.054.045z"/>
    <path fill="#726f70" d="M19.934 6.65l.054-.045 6.183 7.37-.053.045z"/>
    <path fill="#716e6f" d="M19.994 6.611l.054-.045 6.184 7.37-.054.045z"/>
    <path fill="#706d6e" d="M20.04 6.56l.054-.044 6.184 7.37-.054.044z"/>
    <path fill="#6f6c6d" d="M20.083 6.518l.054-.045 6.183 7.37-.053.044z"/>
    <path fill="#6e6b6c" d="M20.136 6.485l.053-.045 6.184 7.37-.054.045z"/>
    <path fill="#6d6a6b" d="M20.188 6.442l.054-.045 6.184 7.37-.054.045z"/>
    <path fill="#6c696a" d="M20.235 6.392l.053-.045 6.184 7.37-.054.044z"/>
    <path fill="#6b6869" d="M20.287 6.35l.054-.046 6.183 7.37-.053.045z"/>
    <path fill="#6a6768" d="M20.347 6.31l.054-.045 6.184 7.37-.054.044z"/>
    <path fill="#696667" d="M20.394 6.26l.053-.045 6.184 7.369-.054.045z"/>
    <path fill="#686566" d="M20.446 6.217l.054-.045 6.183 7.37-.053.044z"/>
    <path fill="#676465" d="M20.499 6.184l.053-.045 6.184 7.37-.054.044z"/>
    <path fill="#666364" d="M20.545 6.134l.053-.045 6.184 7.369-.054.045z"/>
    <path fill="#656263" d="M20.597 6.09l.054-.044 6.184 7.37-.054.044z"/>
    <path fill="#646162" d="M20.65 6.058l.054-.045 6.183 7.37-.053.044z"/>
    <path fill="#636061" d="M20.704 6.001l.054-.045 6.183 7.37-.054.045z"/>
    <path fill="#625f60" d="M20.756 5.958l.054-.045 6.184 7.37-.054.045z"/>
    <path fill="#615e5f" d="M20.81 5.916l.053-.045 6.183 7.369-.053.045z"/>
    <path fill="#605d5e" d="M20.855 5.875l.054-.045 6.183 7.37-.053.045z"/>
    <path fill="#5f5c5d" d="M20.908 5.832l.053-.045 6.184 7.37-.054.045z"/>
    <path fill="#5e5b5c" d="M20.96 5.79l.054-.045 6.184 7.369-.054.045z"/>
    <path fill="#5d5a5b" d="M21.007 5.75l.053-.046 6.184 7.37-.054.045z"/>
    <path fill="#5c595a" d="M21.067 5.7l.053-.045 6.184 7.37-.054.044z"/>
    <path fill="#5b5859" d="M21.12 5.657l.053-.045 6.184 7.37-.054.045z"/>
    <path fill="#5a5758" d="M21.172 5.624l.054-.045 6.183 7.37-.053.045z"/>
    <path fill="#595657" d="M21.218 5.574l.054-.045 6.183 7.37-.053.044z"/>
    <path fill="#585556" d="M21.27 5.531l.054-.045 6.184 7.37-.054.045z"/>
    <path fill="#575455" d="M21.323 5.488l.054-.045 6.184 7.37-.054.045z"/>
    <path fill="#565354" d="M21.37 5.448l.053-.045 6.184 7.37-.054.044z"/>
    <path fill="#555253" d="M21.43 5.399l.053-.045 6.184 7.37-.054.044z"/>
    <path fill="#545152" d="M21.482 5.356l.054-.045 6.184 7.37-.054.044z"/>
    <path fill="#535051" d="M21.529 5.316l.053-.045 6.184 7.369-.054.045z"/>
    <path fill="#524f50" d="M21.581 5.273l.054-.045 6.183 7.37-.053.044z"/>
    <path fill="#514e4f" d="M21.634 5.23l.053-.045 6.184 7.37-.054.044z"/>
    <path fill="#504d4e" d="M21.68 5.18l.053-.045 6.184 7.369-.054.045z"/>
    <path fill="#4f4c4d" d="M21.732 5.147l.054-.045 6.184 7.37-.054.044z"/>
    <path fill="#4e4b4c" d="M21.793 5.098l.053-.045 6.184 7.369-.054.045z"/>
    <path fill="#4d4a4b" d="M21.839 5.047l.053-.045 6.184 7.37-.054.044z"/>
    <path fill="#4c494a" d="M21.891 5.014l.054-.045 6.184 7.37-.054.045z"/>
    <path fill="#4b4849" d="M21.944 4.972l.054-.045 6.183 7.369-.053.045z"/>
    <path fill="#4a4748" d="M21.997 4.929l.053-.045 6.184 7.37-.054.044z"/>
    <path fill="#494647" d="M22.043 4.888l.053-.045 6.184 7.37-.054.045z"/>
    <path fill="#484546" d="M22.095 4.846l.054-.045 6.184 7.369-.054.045z"/>
    <path fill="#484445" d="M22.156 4.796l.053-.045 6.184 7.37-.054.045z"/>
    <path fill="#474344" d="M22.202 4.746l.053-.045 6.184 7.37-.054.044z"/>
    <path fill="#464243" d="M22.254 4.713l.054-.045 6.184 7.37-.054.044z"/>
    <path fill="#454142" d="M22.307 4.67l.054-.045 6.183 7.37-.053.045z"/>
    <path fill="#444041" d="M22.343 4.63l.054-.045 6.183 7.37-.053.044z"/>
    <path fill="#433f40" d="M22.396 4.577l.053-.045 6.184 7.37-.054.044z"/>
    <path fill="#423e3f" d="M22.448 4.544l.054-.045 6.184 7.37-.054.045z"/>
    <path fill="#413d3e" d="M22.502 4.487l.054-.045 6.183 7.37-.053.045z"/>
    <path fill="#403c3d" d="M22.555 4.445l.053-.045 6.184 7.369-.054.045z"/>
    <path fill="#3f3b3c" d="M22.607 4.412l.054-.045 6.184 7.37-.054.044z"/>
    <path fill="#3e3a3b" d="M22.653 4.361l.054-.045 6.184 7.37-.054.045z"/>
    <path fill="#3d393a" d="M22.71 4.32l.05-.04 6.17 7.35v.03l-.04.03-6.18-7.37z"/>
    <path fill="#3c3839" d="M22.76 4.28l.05-.04 6.12 7.28v.11l-6.17-7.35z"/>
    <path fill="#3b3738" d="M22.81 4.24l.05-.05 6.07 7.23v.1l-6.12-7.28z"/>
    <path fill="#3a3637" d="M22.86 4.19l.06-.04 6.01 7.16v.11l-6.07-7.23z"/>
    <path fill="#393536" d="M22.92 4.15l.05-.04 5.96 7.1v.1l-6.01-7.16z"/>
    <path fill="#383435" d="M22.97 4.11l.05-.05 5.91 7.04v.11l-5.96-7.1z"/>
    <path fill="#373334" d="M23.02 4.06l.05-.04L28.93 11v.1l-5.91-7.04z"/>
    <path fill="#363233" d="M23.07 4.02l.05-.04 5.81 6.91V11l-5.86-6.98z"/>
    <path fill="#353132" d="M23.12 3.98l.05-.04 5.76 6.85v.1l-5.81-6.91z"/>
    <path fill="#343031" d="M23.17 3.94l.06-.05 5.7 6.8v.1l-5.76-6.85z"/>
    <path fill="#332f30" d="M23.23 3.89l.05-.04 5.65 6.73v.11l-5.7-6.8z"/>
    <path fill="#322e2f" d="M23.28 3.85l.05-.04 5.6 6.67v.1l-5.65-6.73z"/>
    <path fill="#312d2e" d="M23.33 3.81l.05-.05 5.55 6.61v.11l-5.6-6.67z"/>
    <path fill="#302c2d" d="M23.38 3.76l.05-.04 5.5 6.55v.1l-5.55-6.61z"/>
    <path fill="#2f2b2c" d="M23.43 3.72l.05-.04 5.45 6.48v.11l-5.5-6.55z"/>
    <path fill="#2e2a2b" d="M23.48 3.68l.05-.05 5.4 6.43v.1l-5.45-6.48z"/>
    <path fill="#2d292a" d="M23.53 3.63l.06-.04 5.34 6.36v.11l-5.4-6.43z"/>
    <path fill="#2c2829" d="M23.59 3.59l.05-.04 5.29 6.3v.1l-5.34-6.36z"/>
    <path fill="#2b2728" d="M23.64 3.55l.05-.05 5.24 6.24v.11l-5.29-6.3z"/>
    <path fill="#2a2627" d="M23.69 3.5l.05-.04 5.19 6.18v.1L23.69 3.5z"/>
    <path fill="#292526" d="M23.74 3.46l.05-.04 5.14 6.12v.1l-5.19-6.18z"/>
    <path fill="#282425" d="M23.79 3.42l.05-.05 5.09 6.06v.11l-5.14-6.12z"/>
    <path fill="#272324" d="M23.84 3.37l.05-.04 5.04 6v.1l-5.09-6.06z"/>
    <path fill="#262223" d="M23.89 3.33l.06-.04 4.98 5.93v.11l-5.04-6z"/>
    <path fill="#252122" d="M23.95 3.29l.05-.05 4.93 5.88v.1l-4.98-5.93z"/>
    <path fill="#242021" d="M24 3.24l.05-.04 4.88 5.81v.11L24 3.24z"/>
    <path fill="#231f20" d="M24.05 3.2l.05-.04 4.83 5.75v.1L24.05 3.2zm.05-.04l.37-.31h4.46v6.06L24.1 3.16z"/>
  </g>
  <g clip-path="url(#0KHovDF52d)">
    <path fill="#fff" d="M20.78 12.94h1.55v5.66h-1.55z"/>
    <path fill="#fff" d="M22.33 12.94h.03v5.66h-.03z"/>
    <path fill="#fefefe" d="M22.36 12.94h.03v5.66h-.03z"/>
    <path fill="#fdfdfd" d="M22.39 12.94h.03v5.66h-.03z"/>
    <path fill="#fcfcfc" d="M22.42 12.94h.03v5.66h-.03z"/>
    <path fill="#fbfbfb" d="M22.45 12.94h.03v5.66h-.03z"/>
    <path fill="#fafafa" d="M22.48 12.94h.03v5.66h-.03z"/>
    <path fill="#f9f9f9" d="M22.51 12.94h.03v5.66h-.03z"/>
    <path fill="#f8f8f8" d="M22.53 12.94h.03v5.66h-.03z"/>
    <path fill="#f7f7f7" d="M22.56 12.94h.03v5.66h-.03z"/>
    <path fill="#f6f6f6" d="M22.59 12.94h.03v5.66h-.03z"/>
    <path fill="#f5f5f5" d="M22.62 12.94h.03v5.66h-.03z"/>
    <path fill="#f4f4f4" d="M22.65 12.94h.03v5.66h-.03z"/>
    <path fill="#f3f3f3" d="M22.68 12.94h.03v5.66h-.03z"/>
    <path fill="#f2f2f2" d="M22.71 12.94h.03v5.66h-.03z"/>
    <path fill="#f1f1f1" d="M22.73 12.94h.03v5.66h-.03z"/>
    <path fill="#f0f0f0" d="M22.76 12.94h.03v5.66h-.03z"/>
    <path fill="#efefef" d="M22.79 12.94h.03v5.66h-.03z"/>
    <path fill="#eee" d="M22.82 12.94h.03v5.66h-.03z"/>
    <path fill="#ededed" d="M22.85 12.94h.03v5.66h-.03z"/>
    <path fill="#ececec" d="M22.88 12.94h.03v5.66h-.03z"/>
    <path fill="#ebebeb" d="M22.91 12.94h.03v5.66h-.03z"/>
    <path fill="#eaeaea" d="M22.93 12.94h.03v5.66h-.03z"/>
    <path fill="#e9e9e9" d="M22.96 12.94h.03v5.66h-.03z"/>
    <path fill="#e8e8e8" d="M22.99 12.94h.03v5.66h-.03z"/>
    <path fill="#e7e7e7" d="M23.02 12.94h.03v5.66h-.03z"/>
    <path fill="#e6e6e6" d="M23.05 12.94h.03v5.66h-.03z"/>
    <path fill="#e5e5e5" d="M23.08 12.94h.03v5.66h-.03z"/>
    <path fill="#e4e4e4" d="M23.11 12.94h.03v5.66h-.03z"/>
    <path fill="#e3e3e3" d="M23.13 12.94h.03v5.66h-.03z"/>
    <path fill="#e2e2e2" d="M23.16 12.94h.03v5.66h-.03z"/>
    <path fill="#e1e1e1" d="M23.19 12.94h.03v5.66h-.03z"/>
    <path fill="#e0e0e0" d="M23.22 12.94h.03v5.66h-.03z"/>
    <path fill="#dfdfdf" d="M23.25 12.94h.03v5.66h-.03z"/>
    <path fill="#dedede" d="M23.28 12.94h.03v5.66h-.03z"/>
    <path fill="#ddd" d="M23.3 12.94h.03v5.66h-.03z"/>
    <path fill="#dcdcdc" d="M23.33 12.94h.03v5.66h-.03z"/>
    <path fill="#dbdbdb" d="M23.36 12.94h.03v5.66h-.03z"/>
    <path fill="#dadada" d="M23.39 12.94h.03v5.66h-.03z"/>
    <path fill="#dad9d9" d="M23.42 12.94h.03v5.66h-.03z"/>
    <path fill="#d9d8d8" d="M23.45 12.94h.03v5.66h-.03z"/>
    <path fill="#d8d7d7" d="M23.48 12.94h.03v5.66h-.03z"/>
    <path fill="#d7d6d6" d="M23.5 12.94h.03v5.66h-.03z"/>
    <path fill="#d6d5d5" d="M23.53 12.94h.03v5.66h-.03z"/>
    <path fill="#d5d4d4" d="M23.56 12.94h.03v5.66h-.03z"/>
    <path fill="#d4d3d3" d="M23.59 12.94h.03v5.66h-.03z"/>
    <path fill="#d3d2d2" d="M23.62 12.94h.03v5.66h-.03z"/>
    <path fill="#d2d1d1" d="M23.65 12.94h.03v5.66h-.03z"/>
    <path fill="#d1d0d0" d="M23.68 12.94h.03v5.66h-.03z"/>
    <path fill="#d0cfcf" d="M23.7 12.94h.03v5.66h-.03z"/>
    <path fill="#cfcece" d="M23.73 12.94h.03v5.66h-.03z"/>
    <path fill="#cecdcd" d="M23.76 12.94h.03v5.66h-.03z"/>
    <path fill="#cdcccc" d="M23.79 12.94h.03v5.66h-.03z"/>
    <path fill="#cccbcb" d="M23.82 12.94h.03v5.66h-.03z"/>
    <path fill="#cbcaca" d="M23.85 12.94h.03v5.66h-.03z"/>
    <path fill="#cac9c9" d="M23.88 12.94h.03v5.66h-.03z"/>
    <path fill="#c9c8c8" d="M23.9 12.94h.03v5.66h-.03z"/>
    <path fill="#c8c7c7" d="M23.93 12.94h.03v5.66h-.03z"/>
    <path fill="#c7c6c6" d="M23.96 12.94h.03v5.66h-.03z"/>
    <path fill="#c6c5c5" d="M23.99 12.94h.03v5.66h-.03z"/>
    <path fill="#c5c4c4" d="M24.02 12.94h.03v5.66h-.03z"/>
    <path fill="#c4c3c3" d="M24.05 12.94h.03v5.66h-.03z"/>
    <path fill="#c3c2c2" d="M24.08 12.94h.03v5.66h-.03z"/>
    <path fill="#c2c1c1" d="M24.1 12.94h.03v5.66h-.03z"/>
    <path fill="#c1c0c0" d="M24.13 12.94h.03v5.66h-.03z"/>
    <path fill="#c0bfbf" d="M24.16 12.94h.03v5.66h-.03z"/>
    <path fill="#bfbebe" d="M24.19 12.94h.03v5.66h-.03z"/>
    <path fill="#bebdbd" d="M24.22 12.94h.03v5.66h-.03z"/>
    <path fill="#bdbcbc" d="M24.25 12.94h.03v5.66h-.03z"/>
    <path fill="#bcbbbb" d="M24.28 12.94h.03v5.66h-.03z"/>
    <path fill="#bbbaba" d="M24.3 12.94h.03v5.66h-.03z"/>
    <path fill="#bab9b9" d="M24.33 12.94h.03v5.66h-.03z"/>
    <path fill="#b9b8b8" d="M24.36 12.94h.03v5.66h-.03z"/>
    <path fill="#b8b7b7" d="M24.39 12.94h.03v5.66h-.03z"/>
    <path fill="#b7b6b6" d="M24.42 12.94h.03v5.66h-.03z"/>
    <path fill="#b6b5b5" d="M24.45 12.94h.03v5.66h-.03z"/>
    <path fill="#b5b4b4" d="M24.47 12.94h.03v5.66h-.03z"/>
    <path fill="#b4b3b3" d="M24.5 12.94h.03v5.66h-.03z"/>
    <path fill="#b3b2b2" d="M24.53 12.94h.03v5.66h-.03z"/>
    <path fill="#b2b1b1" d="M24.56 12.94h.03v5.66h-.03z"/>
    <path fill="#b1b0b0" d="M24.59 12.94h.03v5.66h-.03z"/>
    <path fill="#b0afaf" d="M24.62 12.94h.03v5.66h-.03z"/>
    <path fill="#afaeae" d="M24.65 12.94h.03v5.66h-.03z"/>
    <path fill="#aeadad" d="M24.67 12.94h.03v5.66h-.03z"/>
    <path fill="#adacac" d="M24.7 12.94h.03v5.66h-.03z"/>
    <path fill="#acabab" d="M24.73 12.94h.03v5.66h-.03z"/>
    <path fill="#abaaaa" d="M24.76 12.94h.03v5.66h-.03z"/>
    <path fill="#aaa9a9" d="M24.79 12.94h.03v5.66h-.03z"/>
    <path fill="#a9a8a8" d="M24.82 12.94h.03v5.66h-.03z"/>
    <path fill="#a8a7a7" d="M24.85 12.94h.03v5.66h-.03z"/>
    <path fill="#a7a6a6" d="M24.87 12.94h.03v5.66h-.03z"/>
    <path fill="#a6a5a5" d="M24.9 12.94h.03v5.66h-.03z"/>
    <path fill="#a5a4a4" d="M24.93 12.94h.03v5.66h-.03z"/>
    <path fill="#a4a3a3" d="M24.96 12.94h.03v5.66h-.03z"/>
    <path fill="#a3a2a2" d="M24.99 12.94h.03v5.66h-.03z"/>
    <path fill="#a2a1a1" d="M25.02 12.94h.03v5.66h-.03z"/>
    <path fill="#a1a0a0" d="M25.05 12.94h.03v5.66h-.03z"/>
    <path fill="#a09f9f" d="M25.07 12.94h.03v5.66h-.03z"/>
    <path fill="#9f9e9e" d="M25.1 12.94h.03v5.66h-.03z"/>
    <path fill="#9e9d9d" d="M25.13 12.94h.03v5.66h-.03z"/>
    <path fill="#9d9c9c" d="M25.16 12.94h.03v5.66h-.03z"/>
    <path fill="#9c9b9b" d="M25.19 12.94h.03v5.66h-.03z"/>
    <path fill="#9b9a9a" d="M25.22 12.94h.03v5.66h-.03z"/>
    <path fill="#9a9999" d="M25.25 12.94h.03v5.66h-.03z"/>
    <path fill="#999898" d="M25.27 12.94h.03v5.66h-.03z"/>
    <path fill="#989797" d="M25.3 12.94h.03v5.66h-.03z"/>
    <path fill="#979696" d="M25.33 12.94h.03v5.66h-.03z"/>
    <path fill="#969595" d="M25.36 12.94h.03v5.66h-.03z"/>
    <path fill="#959494" d="M25.39 12.94h.03v5.66h-.03z"/>
    <path fill="#949393" d="M25.42 12.94h.03v5.66h-.03z"/>
    <path fill="#939292" d="M25.45 12.94h.03v5.66h-.03z"/>
    <path fill="#929191" d="M25.47 12.94h.03v5.66h-.03z"/>
    <path fill="#919090" d="M25.5 12.94h.03v5.66h-.03z"/>
    <path fill="#918e8f" d="M25.53 12.94h.03v5.66h-.03z"/>
    <path fill="#908d8e" d="M25.56 12.94h.03v5.66h-.03z"/>
    <path fill="#8f8c8d" d="M25.59 12.94h.03v5.66h-.03z"/>
    <path fill="#8e8b8c" d="M25.62 12.94h.03v5.66h-.03z"/>
    <path fill="#8d8a8b" d="M25.64 12.94h.03v5.66h-.03z"/>
    <path fill="#8c898a" d="M25.67 12.94h.03v5.66h-.03z"/>
    <path fill="#8b8889" d="M25.7 12.94h.03v5.66h-.03z"/>
    <path fill="#8a8788" d="M25.73 12.94h.03v5.66h-.03z"/>
    <path fill="#898687" d="M25.76 12.94h.03v5.66h-.03z"/>
    <path fill="#888586" d="M25.79 12.94h.03v5.66h-.03z"/>
    <path fill="#878485" d="M25.82 12.94h.03v5.66h-.03z"/>
    <path fill="#868384" d="M25.84 12.94h.03v5.66h-.03z"/>
    <path fill="#858283" d="M25.87 12.94h.03v5.66h-.03z"/>
    <path fill="#848182" d="M25.9 12.94h.03v5.66h-.03z"/>
    <path fill="#838081" d="M25.93 12.94h.03v5.66h-.03z"/>
    <path fill="#827f80" d="M25.96 12.94h.03v5.66h-.03z"/>
    <path fill="#817e7f" d="M25.99 12.94h.03v5.66h-.03z"/>
    <path fill="#807d7e" d="M26.02 12.94h.03v5.66h-.03z"/>
    <path fill="#7f7c7d" d="M26.04 12.94h.03v5.66h-.03z"/>
    <path fill="#7e7b7c" d="M26.07 12.94h.03v5.66h-.03z"/>
    <path fill="#7d7a7b" d="M26.1 12.94h.03v5.66h-.03z"/>
    <path fill="#7c797a" d="M26.13 12.94h.03v5.66h-.03z"/>
    <path fill="#7b7879" d="M26.16 12.94h.03v5.66h-.03z"/>
    <path fill="#7a7778" d="M26.19 12.94h.03v5.66h-.03z"/>
    <path fill="#797677" d="M26.22 12.94h.03v5.66h-.03z"/>
    <path fill="#787576" d="M26.24 12.94h.03v5.66h-.03z"/>
    <path fill="#777475" d="M26.27 12.94h.03v5.66h-.03z"/>
    <path fill="#767374" d="M26.3 12.94h.03v5.66h-.03z"/>
    <path fill="#757273" d="M26.33 12.94h.03v5.66h-.03z"/>
    <path fill="#747172" d="M26.36 12.94h.03v5.66h-.03z"/>
    <path fill="#737071" d="M26.39 12.94h.03v5.66h-.03z"/>
    <path fill="#726f70" d="M26.42 12.94h.03v5.66h-.03z"/>
    <path fill="#716e6f" d="M26.44 12.94h.03v5.66h-.03z"/>
    <path fill="#706d6e" d="M26.47 12.94h.03v5.66h-.03z"/>
    <path fill="#6f6c6d" d="M26.5 12.94h.03v5.66h-.03z"/>
    <path fill="#6e6b6c" d="M26.53 12.94h.03v5.66h-.03z"/>
    <path fill="#6d6a6b" d="M26.56 12.94h.03v5.66h-.03z"/>
    <path fill="#6c696a" d="M26.59 12.94h.03v5.66h-.03z"/>
    <path fill="#6b6869" d="M26.62 12.94h.03v5.66h-.03z"/>
    <path fill="#6a6768" d="M26.64 12.94h.03v5.66h-.03z"/>
    <path fill="#696667" d="M26.67 12.94h.03v5.66h-.03z"/>
    <path fill="#686566" d="M26.7 12.94h.03v5.66h-.03z"/>
    <path fill="#676465" d="M26.73 12.94h.03v5.66h-.03z"/>
    <path fill="#666364" d="M26.76 12.94h.03v5.66h-.03z"/>
    <path fill="#656263" d="M26.79 12.94h.03v5.66h-.03z"/>
    <path fill="#646162" d="M26.81 12.94h.03v5.66h-.03z"/>
    <path fill="#636061" d="M26.84 12.94h.03v5.66h-.03z"/>
    <path fill="#625f60" d="M26.87 12.94h.03v5.66h-.03z"/>
    <path fill="#615e5f" d="M26.9 12.94h.03v5.66h-.03z"/>
    <path fill="#605d5e" d="M26.93 12.94h.03v5.66h-.03z"/>
    <path fill="#5f5c5d" d="M26.96 12.94h.03v5.66h-.03z"/>
    <path fill="#5e5b5c" d="M26.99 12.94h.03v5.66h-.03z"/>
    <path fill="#5d5a5b" d="M27.01 12.94h.03v5.66h-.03z"/>
    <path fill="#5c595a" d="M27.04 12.94h.03v5.66h-.03z"/>
    <path fill="#5b5859" d="M27.07 12.94h.03v5.66h-.03z"/>
    <path fill="#5a5758" d="M27.1 12.94h.03v5.66h-.03z"/>
    <path fill="#595657" d="M27.13 12.94h.03v5.66h-.03z"/>
    <path fill="#585556" d="M27.16 12.94h.03v5.66h-.03z"/>
    <path fill="#575455" d="M27.19 12.94h.03v5.66h-.03z"/>
    <path fill="#565354" d="M27.21 12.94h.03v5.66h-.03z"/>
    <path fill="#555253" d="M27.24 12.94h.03v5.66h-.03z"/>
    <path fill="#545152" d="M27.27 12.94h.03v5.66h-.03z"/>
    <path fill="#535051" d="M27.3 12.94h.03v5.66h-.03z"/>
    <path fill="#524f50" d="M27.33 12.94h.03v5.66h-.03z"/>
    <path fill="#514e4f" d="M27.36 12.94h.03v5.66h-.03z"/>
    <path fill="#504d4e" d="M27.39 12.94h.03v5.66h-.03z"/>
    <path fill="#4f4c4d" d="M27.41 12.94h.03v5.66h-.03z"/>
    <path fill="#4e4b4c" d="M27.44 12.94h.03v5.66h-.03z"/>
    <path fill="#4d4a4b" d="M27.47 12.94h.03v5.66h-.03z"/>
    <path fill="#4c494a" d="M27.5 12.94h.03v5.66h-.03z"/>
    <path fill="#4b4849" d="M27.53 12.94h.03v5.66h-.03z"/>
    <path fill="#4a4748" d="M27.56 12.94h.03v5.66h-.03z"/>
    <path fill="#494647" d="M27.59 12.94h.03v5.66h-.03z"/>
    <path fill="#484546" d="M27.61 12.94h.03v5.66h-.03z"/>
    <path fill="#484445" d="M27.64 12.94h.03v5.66h-.03z"/>
    <path fill="#474344" d="M27.67 12.94h.03v5.66h-.03z"/>
    <path fill="#464243" d="M27.7 12.94h.03v5.66h-.03z"/>
    <path fill="#454142" d="M27.73 12.94h.03v5.66h-.03z"/>
    <path fill="#444041" d="M27.76 12.94h.03v5.66h-.03z"/>
    <path fill="#433f40" d="M27.79 12.94h.03v5.66h-.03z"/>
    <path fill="#423e3f" d="M27.81 12.94h.03v5.66h-.03z"/>
    <path fill="#413d3e" d="M27.84 12.94h.03v5.66h-.03z"/>
    <path fill="#403c3d" d="M27.87 12.94h.03v5.66h-.03z"/>
    <path fill="#3f3b3c" d="M27.9 12.94h.03v5.66h-.03z"/>
    <path fill="#3e3a3b" d="M27.93 12.94h.03v5.66h-.03z"/>
    <path fill="#3d393a" d="M27.96 12.94h.03v5.66h-.03z"/>
    <path fill="#3c3839" d="M27.99 12.94h.03v5.66h-.03z"/>
    <path fill="#3b3738" d="M28.01 12.94h.03v5.66h-.03z"/>
    <path fill="#3a3637" d="M28.04 12.94h.03v5.66h-.03z"/>
    <path fill="#393536" d="M28.07 12.94h.03v5.66h-.03z"/>
    <path fill="#383435" d="M28.1 12.94h.03v5.66h-.03z"/>
    <path fill="#373334" d="M28.13 12.94h.03v5.66h-.03z"/>
    <path fill="#363233" d="M28.16 12.94h.03v5.66h-.03z"/>
    <path fill="#353132" d="M28.18 12.94h.03v5.66h-.03z"/>
    <path fill="#343031" d="M28.21 12.94h.03v5.66h-.03z"/>
    <path fill="#332f30" d="M28.24 12.94h.03v5.66h-.03z"/>
    <path fill="#322e2f" d="M28.27 12.94h.03v5.66h-.03z"/>
    <path fill="#312d2e" d="M28.3 12.94h.03v5.66h-.03z"/>
    <path fill="#302c2d" d="M28.33 12.94h.03v5.66h-.03z"/>
    <path fill="#2f2b2c" d="M28.36 12.94h.03v5.66h-.03z"/>
    <path fill="#2e2a2b" d="M28.38 12.94h.03v5.66h-.03z"/>
    <path fill="#2d292a" d="M28.41 12.94h.03v5.66h-.03z"/>
    <path fill="#2c2829" d="M28.44 12.94h.03v5.66h-.03z"/>
    <path fill="#2b2728" d="M28.47 12.94h.03v5.66h-.03z"/>
    <path fill="#2a2627" d="M28.5 12.94h.03v5.66h-.03z"/>
    <path fill="#292526" d="M28.53 12.94h.03v5.66h-.03z"/>
    <path fill="#282425" d="M28.56 12.94h.03v5.66h-.03z"/>
    <path fill="#272324" d="M28.58 12.94h.03v5.66h-.03z"/>
    <path fill="#262223" d="M28.61 12.94h.03v5.66h-.03z"/>
    <path fill="#252122" d="M28.64 12.94h.03v5.66h-.03z"/>
    <path fill="#242021" d="M28.67 12.94h.03v5.66h-.03z"/>
    <path fill="#231f20" d="M28.7 12.94h.03v5.66h-.03zm.02 5.67z"/>
  </g>
  <g clip-path="url(#0KHovDF52e)">
    <path d="M19.34 0zm0 0h.03v8.37h-.03z" fill="#fff"/>
    <path fill="#fefefe" d="M19.37 0h.03v8.37h-.03z"/>
    <path fill="#fdfdfd" d="M19.4 0h.03v8.37h-.03z"/>
    <path fill="#fcfcfc" d="M19.43 0h.03v8.37h-.03z"/>
    <path fill="#fbfbfb" d="M19.46 0h.03v8.37h-.03z"/>
    <path fill="#fafafa" d="M19.49 0h.03v8.37h-.03z"/>
    <path fill="#f9f9f9" d="M19.51 0h.03v8.37h-.03z"/>
    <path fill="#f8f8f8" d="M19.54 0h.03v8.37h-.03z"/>
    <path fill="#f7f7f7" d="M19.57 0h.03v8.37h-.03z"/>
    <path fill="#f6f6f6" d="M19.6 0h.03v8.37h-.03z"/>
    <path fill="#f5f5f5" d="M19.63 0h.03v8.37h-.03z"/>
    <path fill="#f4f4f4" d="M19.66 0h.03v8.37h-.03z"/>
    <path fill="#f3f3f3" d="M19.69 0h.03v8.37h-.03z"/>
    <path fill="#f2f2f2" d="M19.72 0h.03v8.37h-.03z"/>
    <path fill="#f1f1f1" d="M19.74 0h.03v8.37h-.03z"/>
    <path fill="#f0f0f0" d="M19.77 0h.03v8.37h-.03z"/>
    <path fill="#efefef" d="M19.8 0h.03v8.37h-.03z"/>
    <path fill="#eee" d="M19.83 0h.03v8.37h-.03z"/>
    <path fill="#ededed" d="M19.86 0h.03v8.37h-.03z"/>
    <path fill="#ececec" d="M19.89 0h.03v8.37h-.03z"/>
    <path fill="#ebebeb" d="M19.92 0h.03v8.37h-.03z"/>
    <path fill="#eaeaea" d="M19.95 0h.03v8.37h-.03z"/>
    <path fill="#e9e9e9" d="M19.98 0h.03v8.37h-.03z"/>
    <path fill="#e8e8e8" d="M20 0h.03v8.37H20z"/>
    <path fill="#e7e7e7" d="M20.03 0h.03v8.37h-.03z"/>
    <path fill="#e6e6e6" d="M20.06 0h.03v8.37h-.03z"/>
    <path fill="#e5e5e5" d="M20.09 0h.03v8.37h-.03z"/>
    <path fill="#e4e4e4" d="M20.12 0h.03v8.37h-.03z"/>
    <path fill="#e3e3e3" d="M20.15 0h.03v8.37h-.03z"/>
    <path fill="#e2e2e2" d="M20.18 0h.03v8.37h-.03z"/>
    <path fill="#e1e1e1" d="M20.21 0h.03v8.37h-.03z"/>
    <path fill="#e0e0e0" d="M20.24 0h.03v8.37h-.03z"/>
    <path fill="#dfdfdf" d="M20.26 0h.03v8.37h-.03z"/>
    <path fill="#dedede" d="M20.29 0h.03v8.37h-.03z"/>
    <path fill="#ddd" d="M20.32 0h.03v8.37h-.03z"/>
    <path fill="#dcdcdc" d="M20.35 0h.03v8.37h-.03z"/>
    <path fill="#dbdbdb" d="M20.38 0h.03v8.37h-.03z"/>
    <path fill="#dadada" d="M20.41 0h.03v8.37h-.03z"/>
    <path fill="#dad9d9" d="M20.44 0h.03v8.37h-.03z"/>
    <path fill="#d9d8d8" d="M20.47 0h.03v8.37h-.03z"/>
    <path fill="#d8d7d7" d="M20.5 0h.03v8.37h-.03z"/>
    <path fill="#d7d6d6" d="M20.52 0h.03v8.37h-.03z"/>
    <path fill="#d6d5d5" d="M20.55 0h.03v8.37h-.03z"/>
    <path fill="#d5d4d4" d="M20.58 0h.03v8.37h-.03z"/>
    <path fill="#d4d3d3" d="M20.61 0h.03v8.37h-.03z"/>
    <path fill="#d3d2d2" d="M20.64 0h.03v8.37h-.03z"/>
    <path fill="#d2d1d1" d="M20.67 0h.03v8.37h-.03z"/>
    <path fill="#d1d0d0" d="M20.7 0h.03v8.37h-.03z"/>
    <path fill="#d0cfcf" d="M20.73 0h.03v8.37h-.03z"/>
    <path fill="#cfcece" d="M20.75 0h.03v8.37h-.03z"/>
    <path fill="#cecdcd" d="M20.78 0h.03v8.37h-.03z"/>
    <path fill="#cdcccc" d="M20.81 0h.03v8.37h-.03z"/>
    <path fill="#cccbcb" d="M20.84 0h.03v8.37h-.03z"/>
    <path fill="#cbcaca" d="M20.87 0h.03v8.37h-.03z"/>
    <path fill="#cac9c9" d="M20.9 0h.03v8.37h-.03z"/>
    <path fill="#c9c8c8" d="M20.93 0h.03v8.37h-.03z"/>
    <path fill="#c8c7c7" d="M20.96 0h.03v8.37h-.03z"/>
    <path fill="#c7c6c6" d="M20.99 0h.03v8.37h-.03z"/>
    <path fill="#c6c5c5" d="M21.01 0h.03v8.37h-.03z"/>
    <path fill="#c5c4c4" d="M21.04 0h.03v8.37h-.03z"/>
    <path fill="#c4c3c3" d="M21.07 0h.03v8.37h-.03z"/>
    <path fill="#c3c2c2" d="M21.1 0h.03v8.37h-.03z"/>
    <path fill="#c2c1c1" d="M21.13 0h.03v8.37h-.03z"/>
    <path fill="#c1c0c0" d="M21.16 0h.03v8.37h-.03z"/>
    <path fill="#c0bfbf" d="M21.19 0h.03v8.37h-.03z"/>
    <path fill="#bfbebe" d="M21.22 0h.03v8.37h-.03z"/>
    <path fill="#bebdbd" d="M21.25 0h.03v8.37h-.03z"/>
    <path fill="#bdbcbc" d="M21.27 0h.03v8.37h-.03z"/>
    <path fill="#bcbbbb" d="M21.3 0h.03v8.37h-.03z"/>
    <path fill="#bbbaba" d="M21.33 0h.03v8.37h-.03z"/>
    <path fill="#bab9b9" d="M21.36 0h.03v8.37h-.03z"/>
    <path fill="#b9b8b8" d="M21.39 0h.03v8.37h-.03z"/>
    <path fill="#b8b7b7" d="M21.42 0h.03v8.37h-.03z"/>
    <path fill="#b7b6b6" d="M21.45 0h.03v8.37h-.03z"/>
    <path fill="#b6b5b5" d="M21.48 0h.03v8.37h-.03z"/>
    <path fill="#b5b4b4" d="M21.51 0h.03v8.37h-.03z"/>
    <path fill="#b4b3b3" d="M21.53 0h.03v8.37h-.03z"/>
    <path fill="#b3b2b2" d="M21.56 0h.03v8.37h-.03z"/>
    <path fill="#b2b1b1" d="M21.59 0h.03v8.37h-.03z"/>
    <path fill="#b1b0b0" d="M21.62 0h.03v8.37h-.03z"/>
    <path fill="#b0afaf" d="M21.65 0h.03v8.37h-.03z"/>
    <path fill="#afaeae" d="M21.68 0h.03v8.37h-.03z"/>
    <path fill="#aeadad" d="M21.71 0h.03v8.37h-.03z"/>
    <path fill="#adacac" d="M21.74 0h.03v8.37h-.03z"/>
    <path fill="#acabab" d="M21.77 0h.03v8.37h-.03z"/>
    <path fill="#abaaaa" d="M21.79 0h.03v8.37h-.03z"/>
    <path fill="#aaa9a9" d="M21.82 0h.03v8.37h-.03z"/>
    <path fill="#a9a8a8" d="M21.85 0h.03v8.37h-.03z"/>
    <path fill="#a8a7a7" d="M21.88 0h.03v8.37h-.03z"/>
    <path fill="#a7a6a6" d="M21.91 0h.03v8.37h-.03z"/>
    <path fill="#a6a5a5" d="M21.94 0h.03v8.37h-.03z"/>
    <path fill="#a5a4a4" d="M21.97 0H22v8.37h-.03z"/>
    <path fill="#a4a3a3" d="M22 0h.03v8.37H22z"/>
    <path fill="#a3a2a2" d="M22.02 0h.03v8.37h-.03z"/>
    <path fill="#a2a1a1" d="M22.05 0h.03v8.37h-.03z"/>
    <path fill="#a1a0a0" d="M22.08 0h.03v8.37h-.03z"/>
    <path fill="#a09f9f" d="M22.11 0h.03v8.37h-.03z"/>
    <path fill="#9f9e9e" d="M22.14 0h.03v8.37h-.03z"/>
    <path fill="#9e9d9d" d="M22.17 0h.03v8.37h-.03z"/>
    <path fill="#9d9c9c" d="M22.2 0h.03v8.37h-.03z"/>
    <path fill="#9c9b9b" d="M22.23 0h.03v8.37h-.03z"/>
    <path fill="#9b9a9a" d="M22.26 0h.03v8.37h-.03z"/>
    <path fill="#9a9999" d="M22.28 0h.03v8.37h-.03z"/>
    <path fill="#999898" d="M22.31 0h.03v8.37h-.03z"/>
    <path fill="#989797" d="M22.34 0h.03v8.37h-.03z"/>
    <path fill="#979696" d="M22.37 0h.03v8.37h-.03z"/>
    <path fill="#969595" d="M22.4 0h.03v8.37h-.03z"/>
    <path fill="#959494" d="M22.43 0h.03v8.37h-.03z"/>
    <path fill="#949393" d="M22.46 0h.03v8.37h-.03z"/>
    <path fill="#939292" d="M22.49 0h.03v8.37h-.03z"/>
    <path fill="#929191" d="M22.52 0h.03v8.37h-.03z"/>
    <path fill="#919090" d="M22.54 0h.03v8.37h-.03z"/>
    <path fill="#918e8f" d="M22.57 0h.03v8.37h-.03z"/>
    <path fill="#908d8e" d="M22.6 0h.03v8.37h-.03z"/>
    <path fill="#8f8c8d" d="M22.63 0h.03v8.37h-.03z"/>
    <path fill="#8e8b8c" d="M22.66 0h.03v8.37h-.03z"/>
    <path fill="#8d8a8b" d="M22.69 0h.03v8.37h-.03z"/>
    <path fill="#8c898a" d="M22.72 0h.03v8.37h-.03z"/>
    <path fill="#8b8889" d="M22.75 0h.03v8.37h-.03z"/>
    <path fill="#8a8788" d="M22.78 0h.03v8.37h-.03z"/>
    <path fill="#898687" d="M22.8 0h.03v8.37h-.03z"/>
    <path fill="#888586" d="M22.83 0h.03v8.37h-.03z"/>
    <path fill="#878485" d="M22.86 0h.03v8.37h-.03z"/>
    <path fill="#868384" d="M22.89 0h.03v8.37h-.03z"/>
    <path fill="#858283" d="M22.92 0h.03v8.37h-.03z"/>
    <path fill="#848182" d="M22.95 0h.03v8.37h-.03z"/>
    <path fill="#838081" d="M22.98 0h.03v8.37h-.03z"/>
    <path fill="#827f80" d="M23.01 0h.03v8.37h-.03z"/>
    <path fill="#817e7f" d="M23.04 0h.03v8.37h-.03z"/>
    <path fill="#807d7e" d="M23.06 0h.03v8.37h-.03z"/>
    <path fill="#7f7c7d" d="M23.09 0h.03v8.37h-.03z"/>
    <path fill="#7e7b7c" d="M23.12 0h.03v8.37h-.03z"/>
    <path fill="#7d7a7b" d="M23.15 0h.03v8.37h-.03z"/>
    <path fill="#7c797a" d="M23.18 0h.03v8.37h-.03z"/>
    <path fill="#7b7879" d="M23.21 0h.03v8.37h-.03z"/>
    <path fill="#7a7778" d="M23.24 0h.03v8.37h-.03z"/>
    <path fill="#797677" d="M23.27 0h.03v8.37h-.03z"/>
    <path fill="#787576" d="M23.29 0h.03v8.37h-.03z"/>
    <path fill="#777475" d="M23.32 0h.03v8.37h-.03z"/>
    <path fill="#767374" d="M23.35 0h.03v8.37h-.03z"/>
    <path fill="#757273" d="M23.38 0h.03v8.37h-.03z"/>
    <path fill="#747172" d="M23.41 0h.03v8.37h-.03z"/>
    <path fill="#737071" d="M23.44 0h.03v8.37h-.03z"/>
    <path fill="#726f70" d="M23.47 0h.03v8.37h-.03z"/>
    <path fill="#716e6f" d="M23.5 0h.03v8.37h-.03z"/>
    <path fill="#706d6e" d="M23.53 0h.03v8.37h-.03z"/>
    <path fill="#6f6c6d" d="M23.55 0h.03v8.37h-.03z"/>
    <path fill="#6e6b6c" d="M23.58 0h.03v8.37h-.03z"/>
    <path fill="#6d6a6b" d="M23.61 0h.03v8.37h-.03z"/>
    <path fill="#6c696a" d="M23.64 0h.03v8.37h-.03z"/>
    <path fill="#6b6869" d="M23.67 0h.03v8.37h-.03z"/>
    <path fill="#6a6768" d="M23.7 0h.03v8.37h-.03z"/>
    <path fill="#696667" d="M23.73 0h.03v8.37h-.03z"/>
    <path fill="#686566" d="M23.76 0h.03v8.37h-.03z"/>
    <path fill="#676465" d="M23.79 0h.03v8.37h-.03z"/>
    <path fill="#666364" d="M23.81 0h.03v8.37h-.03z"/>
    <path fill="#656263" d="M23.84 0h.03v8.37h-.03z"/>
    <path fill="#646162" d="M23.87 0h.03v8.37h-.03z"/>
    <path fill="#636061" d="M23.9 0h.03v8.37h-.03z"/>
    <path fill="#625f60" d="M23.93 0h.03v8.37h-.03z"/>
    <path fill="#615e5f" d="M23.96 0h.03v8.37h-.03z"/>
    <path fill="#605d5e" d="M23.99 0h.03v8.37h-.03z"/>
    <path fill="#5f5c5d" d="M24.02 0h.03v8.37h-.03z"/>
    <path fill="#5e5b5c" d="M24.05 0h.03v8.37h-.03z"/>
    <path fill="#5d5a5b" d="M24.07 0h.03v8.37h-.03z"/>
    <path fill="#5c595a" d="M24.1 0h.03v8.37h-.03z"/>
    <path fill="#5b5859" d="M24.13 0h.03v8.37h-.03z"/>
    <path fill="#5a5758" d="M24.16 0h.03v8.37h-.03z"/>
    <path fill="#595657" d="M24.19 0h.03v8.37h-.03z"/>
    <path fill="#585556" d="M24.22 0h.03v8.37h-.03z"/>
    <path fill="#575455" d="M24.25 0h.03v8.37h-.03z"/>
    <path fill="#565354" d="M24.28 0h.03v8.37h-.03z"/>
    <path fill="#555253" d="M24.3 0h.03v8.37h-.03z"/>
    <path fill="#545152" d="M24.33 0h.03v8.37h-.03z"/>
    <path fill="#535051" d="M24.36 0h.03v8.37h-.03z"/>
    <path fill="#524f50" d="M24.39 0h.03v8.37h-.03z"/>
    <path fill="#514e4f" d="M24.42 0h.03v8.37h-.03z"/>
    <path fill="#504d4e" d="M24.45 0h.03v8.37h-.03z"/>
    <path fill="#4f4c4d" d="M24.48 0h.03v8.37h-.03z"/>
    <path fill="#4e4b4c" d="M24.51 0h.03v8.37h-.03z"/>
    <path fill="#4d4a4b" d="M24.54 0h.03v8.37h-.03z"/>
    <path fill="#4c494a" d="M24.56 0h.03v8.37h-.03z"/>
    <path fill="#4b4849" d="M24.59 0h.03v8.37h-.03z"/>
    <path fill="#4a4748" d="M24.62 0h.03v8.37h-.03z"/>
    <path fill="#494647" d="M24.65 0h.03v8.37h-.03z"/>
    <path fill="#484546" d="M24.68 0h.03v8.37h-.03z"/>
    <path fill="#484445" d="M24.71 0h.03v8.37h-.03z"/>
    <path fill="#474344" d="M24.74 0h.03v8.37h-.03z"/>
    <path fill="#464243" d="M24.77 0h.03v8.37h-.03z"/>
    <path fill="#454142" d="M24.8 0h.03v8.37h-.03z"/>
    <path fill="#444041" d="M24.82 0h.03v8.37h-.03z"/>
    <path fill="#433f40" d="M24.85 0h.03v8.37h-.03z"/>
    <path fill="#423e3f" d="M24.88 0h.03v8.37h-.03z"/>
    <path fill="#413d3e" d="M24.91 0h.03v8.37h-.03z"/>
    <path fill="#403c3d" d="M24.94 0h.03v8.37h-.03z"/>
    <path fill="#3f3b3c" d="M24.97 0H25v8.37h-.03z"/>
    <path fill="#3e3a3b" d="M25 0h.03v8.37H25z"/>
    <path fill="#3d393a" d="M25.03 0h.03v8.37h-.03z"/>
    <path fill="#3c3839" d="M25.06 0h.03v8.37h-.03z"/>
    <path fill="#3b3738" d="M25.08 0h.03v8.37h-.03z"/>
    <path fill="#3a3637" d="M25.11 0h.03v8.37h-.03z"/>
    <path fill="#393536" d="M25.14 0h.03v8.37h-.03z"/>
    <path fill="#383435" d="M25.17 0h.03v8.37h-.03z"/>
    <path fill="#373334" d="M25.2 0h.03v8.37h-.03z"/>
    <path fill="#363233" d="M25.23 0h.03v8.37h-.03z"/>
    <path fill="#353132" d="M25.26 0h.03v8.37h-.03z"/>
    <path fill="#343031" d="M25.29 0h.03v8.37h-.03z"/>
    <path fill="#332f30" d="M25.32 0h.03v8.37h-.03z"/>
    <path fill="#322e2f" d="M25.34 0h.03v8.37h-.03z"/>
    <path fill="#312d2e" d="M25.37 0h.03v8.37h-.03z"/>
    <path fill="#302c2d" d="M25.4 0h.03v8.37h-.03z"/>
    <path fill="#2f2b2c" d="M25.43 0h.03v8.37h-.03z"/>
    <path fill="#2e2a2b" d="M25.46 0h.03v8.37h-.03z"/>
    <path fill="#2d292a" d="M25.49 0h.03v8.37h-.03z"/>
    <path fill="#2c2829" d="M25.52 0h.03v8.37h-.03z"/>
    <path fill="#2b2728" d="M25.55 0h.03v8.37h-.03z"/>
    <path fill="#2a2627" d="M25.57 0h.03v8.37h-.03z"/>
    <path fill="#292526" d="M25.6 0h.03v8.37h-.03z"/>
    <path fill="#282425" d="M25.63 0h.03v8.37h-.03z"/>
    <path fill="#272324" d="M25.66 0h.03v8.37h-.03z"/>
    <path fill="#262223" d="M25.69 0h.03v8.37h-.03z"/>
    <path fill="#252122" d="M25.72 0h.03v8.37h-.03z"/>
    <path fill="#242021" d="M25.75 0h.03v8.37h-.03z"/>
    <path fill="#231f20" d="M25.78 0h.03v8.37h-.03zm.02 8.37z"/>
  </g>
  <path d="M37.53 17.3V2.68h4.23l4.7 8.28V2.68h4.09v14.6h-4.13L41.6 9.12v8.16z" fill="#fff"/>
</svg>
